<svg xmlns="http://www.w3.org/2000/svg" width="46" height="14" viewBox="0 0 46 14">
  <path fill="#1A202C" d="M328.63,436.23 C329.055259,436.583462 329.113462,437.214741 328.76,437.64 L325.123512,441.999725 L367,442 C367.552285,442 368,442.447715 368,443 C368,443.552285 367.552285,444 367,444 L325.095512,443.999725 L328.61,448.36 C328.859693,448.659723 328.912298,449.077286 328.744746,449.429574 C328.577194,449.781862 328.220077,450.004557 327.83,450.0002 C327.527412,450.001029 327.24063,449.864991 327.05,449.63 C326.60495,449.077142 326.271162,448.662499 326.048636,448.38607 C325.197828,447.329166 323.921616,445.743809 322.22,443.63 C321.916683,443.260998 321.916683,442.729002 322.22,442.36 L327.22,436.36 C327.573462,435.934741 328.204741,435.876538 328.63,436.23 Z" transform="translate(-322 -436)"/>
</svg>
