<svg xmlns="http://www.w3.org/2000/svg" width="465" height="94" viewBox="0 0 465 94">
  <g fill="none" fill-rule="evenodd" transform="translate(5.064 -24)">
    <path stroke="#1A202C" stroke-linecap="round" stroke-linejoin="round" stroke-width="9.733" d="M52.50719,51.53 L66.27219,37.765 C68.07989,35.9574 70.22579,34.5235 72.58769,33.5452 C74.94949,32.5669 77.48079,32.0634 80.03719,32.0634 C82.59359,32.0634 85.12499,32.5669 87.48679,33.5452 C89.84859,34.5235 91.99439,35.9574 93.80239,37.765 C95.60939,39.5727 97.04339,41.7186 98.02239,44.0805 C99.00039,46.4423 99.50339,48.9736 99.50339,51.53 C99.50339,54.0864 99.00039,56.6178 98.02239,58.9796 C97.04339,61.3414 95.60939,63.4874 93.80239,65.295 L80.03719,79.06 L52.50719,51.53 Z"/>
    <path fill="#1A202C" fill-rule="nonzero" stroke="#1A202C" stroke-linecap="round" stroke-linejoin="round" stroke-width="9.733" d="M19.46669,79.0601 L5.70169,65.295 C3.89399,63.4874 2.46009,61.3414 1.48181,58.9796 C0.50352,56.6178 2.84217094e-14,54.0864 2.84217094e-14,51.53 C2.84217094e-14,48.9736 0.50352,46.4423 1.48181,44.0805 C2.46009,41.7187 3.89399,39.5727 5.70169,37.765 C7.50929,35.9574 9.65529,34.5235 12.01709,33.5452 C14.37889,32.5669 16.91029,32.0634 19.46669,32.0634 C22.02309,32.0634 24.55439,32.5669 26.91619,33.5452 C29.27799,34.5235 31.42399,35.9574 33.23169,37.765 L46.99669,51.53 L19.46669,79.0601 Z"/>
    <circle cx="40.603" cy="92.133" r="4.867" fill="#1A202C" fill-rule="nonzero"/>
    <circle cx="60.07" cy="92.133" r="4.867" fill="#1A202C" fill-rule="nonzero"/>
    <circle cx="50.336" cy="77.533" r="4.867" fill="#1A202C" fill-rule="nonzero"/>
    <text fill="#1A202C" font-family="Inter-Regular_Bold, Inter" font-size="100" font-weight="bold">
      <tspan x="124.985" y="97">Meddy</tspan>
    </text>
  </g>
</svg>
