<svg xmlns="http://www.w3.org/2000/svg" width="110" height="70" viewBox="0 0 110 70">
  <g fill="none" fill-rule="evenodd" transform="translate(5 5)">
    <path stroke="#1A202C" stroke-linecap="round" stroke-linejoin="round" stroke-width="9.733" d="M52.57119,19.53 L66.33619,5.765 C68.14389,3.9574 70.28979,2.5235 72.65169,1.5452 C75.01349,0.5669 77.54479,0.0634 80.10119,0.0634 C82.65759,0.0634 85.18899,0.5669 87.55079,1.5452 C89.91259,2.5235 92.05839,3.9574 93.86639,5.765 C95.67339,7.5727 97.10739,9.7186 98.08639,12.0805 C99.06439,14.4423 99.56739,16.9736 99.56739,19.53 C99.56739,22.0864 99.06439,24.6178 98.08639,26.9796 C97.10739,29.3414 95.67339,31.4874 93.86639,33.295 L80.10119,47.06 L52.57119,19.53 Z"/>
    <path fill="#1A202C" fill-rule="nonzero" stroke="#1A202C" stroke-linecap="round" stroke-linejoin="round" stroke-width="9.733" d="M19.53069,47.0601 L5.76569,33.295 C3.95799,31.4874 2.52409,29.3414 1.54581,26.9796 C0.56752,24.6178 0.064,22.0864 0.064,19.53 C0.064,16.9736 0.56752,14.4423 1.54581,12.0805 C2.52409,9.7187 3.95799,7.5727 5.76569,5.765 C7.57329,3.9574 9.71929,2.5235 12.08109,1.5452 C14.44289,0.5669 16.97429,0.0634 19.53069,0.0634 C22.08709,0.0634 24.61839,0.5669 26.98019,1.5452 C29.34199,2.5235 31.48799,3.9574 33.29569,5.765 L47.06069,19.53 L19.53069,47.0601 Z"/>
    <circle cx="40.667" cy="60.133" r="4.867" fill="#1A202C" fill-rule="nonzero"/>
    <circle cx="60.134" cy="60.133" r="4.867" fill="#1A202C" fill-rule="nonzero"/>
    <circle cx="50.4" cy="45.533" r="4.867" fill="#1A202C" fill-rule="nonzero"/>
  </g>
</svg>
