<svg width="377" height="121" viewBox="0 0 377 121" fill="none" xmlns="http://www.w3.org/2000/svg">
<path d="M139.753 24.2727H158.716L178.744 73.1364H179.596L199.625 24.2727H218.588V97H203.673V49.6634H203.069L184.248 96.6449H174.092L155.271 49.4858H154.667V97H139.753V24.2727ZM255.83 98.0653C250.22 98.0653 245.39 96.929 241.342 94.6562C237.317 92.3598 234.216 89.1165 232.038 84.9261C229.86 80.7121 228.771 75.7287 228.771 69.9759C228.771 64.3651 229.86 59.4408 232.038 55.2031C234.216 50.9654 237.282 47.6629 241.235 45.2955C245.213 42.928 249.876 41.7443 255.227 41.7443C258.825 41.7443 262.175 42.3243 265.276 43.4844C268.401 44.6207 271.124 46.3371 273.444 48.6335C275.788 50.9299 277.611 53.8182 278.913 57.2983C280.215 60.7547 280.866 64.803 280.866 69.4432V73.598H234.808V64.223H266.626C266.626 62.045 266.152 60.1155 265.205 58.4347C264.258 56.7538 262.945 55.4399 261.264 54.4929C259.606 53.5223 257.677 53.0369 255.475 53.0369C253.179 53.0369 251.143 53.5696 249.367 54.6349C247.615 55.6766 246.242 57.0852 245.248 58.8608C244.254 60.6127 243.745 62.5658 243.721 64.7202V73.6335C243.721 76.3324 244.218 78.6643 245.213 80.6293C246.231 82.5942 247.663 84.1094 249.509 85.1747C251.356 86.2401 253.546 86.7727 256.079 86.7727C257.76 86.7727 259.299 86.536 260.695 86.0625C262.092 85.589 263.288 84.8788 264.282 83.9318C265.276 82.9848 266.034 81.8248 266.555 80.4517L280.546 81.375C279.836 84.7367 278.38 87.6723 276.178 90.1818C274 92.6676 271.183 94.6089 267.727 96.0057C264.294 97.3788 260.329 98.0653 255.83 98.0653ZM310.838 97.8878C306.695 97.8878 302.942 96.8224 299.58 94.6918C296.242 92.5374 293.591 89.3769 291.626 85.2102C289.685 81.0199 288.714 75.8826 288.714 69.7983C288.714 63.5483 289.72 58.3518 291.732 54.2088C293.745 50.0421 296.42 46.929 299.758 44.8693C303.12 42.786 306.801 41.7443 310.802 41.7443C313.856 41.7443 316.401 42.2652 318.437 43.3068C320.497 44.3248 322.154 45.6032 323.409 47.142C324.687 48.6572 325.658 50.1487 326.32 51.6165H326.782V24.2727H341.874V97H326.96V88.2642H326.32C325.61 89.7794 324.604 91.2827 323.302 92.7741C322.024 94.242 320.355 95.4612 318.295 96.4318C316.259 97.4025 313.773 97.8878 310.838 97.8878ZM315.632 85.8494C318.07 85.8494 320.13 85.1866 321.811 83.8608C323.515 82.5114 324.817 80.6293 325.717 78.2145C326.64 75.7997 327.102 72.9706 327.102 69.7273C327.102 66.4839 326.652 63.6667 325.752 61.2756C324.853 58.8845 323.551 57.0379 321.846 55.7358C320.142 54.4337 318.07 53.7827 315.632 53.7827C313.146 53.7827 311.051 54.4574 309.346 55.8068C307.642 57.1562 306.351 59.0265 305.475 61.4176C304.599 63.8087 304.161 66.5786 304.161 69.7273C304.161 72.8996 304.599 75.705 305.475 78.1435C306.375 80.5582 307.665 82.4522 309.346 83.8253C311.051 85.1747 313.146 85.8494 315.632 85.8494ZM354.312 97V42.4545H369.44V97H354.312ZM361.947 35.4233C359.698 35.4233 357.769 34.6776 356.159 33.1861C354.549 31.6709 353.744 29.8598 353.744 27.7528C353.744 25.6695 354.549 23.8821 356.159 22.3906C357.769 20.8755 359.686 20.1179 361.912 20.1179C364.184 20.1179 366.114 20.8755 367.7 22.3906C369.31 23.8821 370.115 25.6695 370.115 27.7528C370.115 29.8598 369.31 31.6709 367.7 33.1861C366.114 34.6776 364.196 35.4233 361.947 35.4233Z" fill="#1A202C"/>
<path d="M60.5708 51.53L74.3358 37.765C76.1435 35.9574 78.2894 34.5235 80.6513 33.5452C83.0131 32.5669 85.5444 32.0634 88.1008 32.0634C90.6572 32.0634 93.1886 32.5669 95.5504 33.5452C97.9122 34.5235 100.058 35.9574 101.866 37.765C103.673 39.5727 105.107 41.7186 106.086 44.0805C107.064 46.4423 107.567 48.9736 107.567 51.53C107.567 54.0864 107.064 56.6178 106.086 58.9796C105.107 61.3414 103.673 63.4874 101.866 65.295L88.1008 79.06L60.5708 51.53Z" stroke="#1A202C" stroke-width="9.73333" stroke-linecap="round" stroke-linejoin="round"/>
<path d="M27.5303 79.0601L13.7653 65.295C11.9576 63.4874 10.5237 61.3414 9.54542 58.9796C8.56713 56.6178 8.06361 54.0864 8.06361 51.53C8.06361 48.9736 8.56713 46.4423 9.54542 44.0805C10.5237 41.7187 11.9576 39.5727 13.7653 37.765C15.5729 35.9574 17.7189 34.5235 20.0807 33.5452C22.4425 32.5669 24.9739 32.0634 27.5303 32.0634C30.0867 32.0634 32.618 32.5669 34.9798 33.5452C37.3416 34.5235 39.4876 35.9574 41.2953 37.765L55.0603 51.53L27.5303 79.0601Z" fill="#1A202C" stroke="#1A202C" stroke-width="9.73333" stroke-linecap="round" stroke-linejoin="round"/>
<circle cx="48.667" cy="92.1333" r="4.86667" fill="#1A202C"/>
<circle cx="68.1333" cy="92.1333" r="4.86667" fill="#1A202C"/>
<circle cx="58.3999" cy="77.5333" r="4.86667" fill="#1A202C"/>
</svg>
