<svg width="340" height="226" viewBox="0 0 340 226" fill="none" xmlns="http://www.w3.org/2000/svg">
<g clip-path="url(#clip0)">
<path opacity="0.5" d="M36.7667 146.528C28.4196 146.892 19.5083 148.628 13.6948 154.631C4.00443 164.631 8.05968 182.806 19.2134 191.154C30.3672 199.501 45.7873 199.759 59.2854 196.294C66.5404 194.43 74.0102 191.583 81.3053 193.294C90.4969 195.449 96.8892 204.309 106.001 206.788C118.243 210.134 129.957 201.142 141.752 196.428C161.882 188.372 186.643 193.662 201.729 209.238C205.94 213.585 209.548 218.725 214.808 221.714C220.127 224.739 226.497 225.194 232.613 225.146C250.985 225.001 269.073 220.938 286.994 216.897C298.374 214.349 309.964 211.685 320.026 205.78C330.088 199.876 338.562 190.076 339.876 178.478C340.106 176.458 340.098 174.325 339.207 172.494C337.732 169.461 334.285 168.027 331.129 166.844C321.752 163.331 311.213 159.825 302.007 163.801C299.593 164.845 297.355 166.385 294.777 166.917C287.42 168.427 281.41 161.58 275.68 156.724C257.945 141.697 232.099 143.069 209.464 137.693C183.105 131.453 155.119 126.35 127.715 130.321C113.926 132.32 103.325 141.682 90.1511 145.301C72.7835 150.07 54.4438 145.774 36.7667 146.528Z" fill="#2A9D8F"/>
<path d="M46.5225 0V9.79957V176.946H249.023V9.79957V0H46.5225Z" fill="url(#paint0_linear)"/>
<path d="M247.73 0H47.8184V5.6606H247.73V0Z" fill="#535461"/>
<path d="M247.73 5.50036H47.8184V173.112H247.73V5.50036Z" fill="#EDEDF4"/>
<path d="M51.5388 3.72042C52.0756 3.72042 52.5108 3.28526 52.5108 2.74847C52.5108 2.21168 52.0756 1.77652 51.5388 1.77652C51.002 1.77652 50.5669 2.21168 50.5669 2.74847C50.5669 3.28526 51.002 3.72042 51.5388 3.72042Z" fill="#FA595F"/>
<path d="M54.4475 3.72042C54.9843 3.72042 55.4195 3.28526 55.4195 2.74847C55.4195 2.21168 54.9843 1.77652 54.4475 1.77652C53.9107 1.77652 53.4756 2.21168 53.4756 2.74847C53.4756 3.28526 53.9107 3.72042 54.4475 3.72042Z" fill="#FFC74C"/>
<path d="M57.3596 3.72042C57.8964 3.72042 58.3316 3.28526 58.3316 2.74847C58.3316 2.21168 57.8964 1.77652 57.3596 1.77652C56.8229 1.77652 56.3877 2.21168 56.3877 2.74847C56.3877 3.28526 56.8229 3.72042 57.3596 3.72042Z" fill="#85D459"/>
<path d="M224.44 15.3291H71.1089V75.4989H224.44V15.3291Z" fill="white"/>
<path d="M224.44 73.3148V75.499H222.256" stroke="#2A9D8F" stroke-miterlimit="10"/>
<path d="M218.001 75.499H75.4189" stroke="#2A9D8F" stroke-miterlimit="10" stroke-dasharray="11.69 11.69"/>
<path d="M73.293 75.499H71.1089V73.3148" stroke="#2A9D8F" stroke-miterlimit="10"/>
<path d="M71.1089 69.0229V19.661" stroke="#2A9D8F" stroke-miterlimit="10" stroke-dasharray="11.79 11.79"/>
<path d="M71.1089 17.5132V15.3291H73.293" stroke="#2A9D8F" stroke-miterlimit="10"/>
<path d="M77.5483 15.3291H220.126" stroke="#2A9D8F" stroke-miterlimit="10" stroke-dasharray="11.69 11.69"/>
<path d="M222.256 15.3291H224.44V17.5132" stroke="#2A9D8F" stroke-miterlimit="10"/>
<path d="M224.44 21.8052V71.1671" stroke="#2A9D8F" stroke-miterlimit="10" stroke-dasharray="11.79 11.79"/>
<path d="M186.917 83.9079H108.633V87.1441H186.917V83.9079Z" fill="white"/>
<path d="M147.692 114.027H69.4087V117.264H147.692V114.027Z" fill="white"/>
<path d="M147.692 121.144H69.4087V124.38H147.692V121.144Z" fill="white"/>
<path d="M147.692 128.261H69.4087V131.497H147.692V128.261Z" fill="white"/>
<path d="M147.692 135.377H69.4087V138.614H147.692V135.377Z" fill="white"/>
<path d="M147.692 142.494H69.4087V145.73H147.692V142.494Z" fill="white"/>
<path d="M147.692 149.611H69.4087V152.847H147.692V149.611Z" fill="white"/>
<path d="M147.692 156.728H69.4087V159.964H147.692V156.728Z" fill="white"/>
<path d="M164.594 90.3766H130.951V93.6128H164.594V90.3766Z" fill="white"/>
<path opacity="0.5" d="M147.773 61.5858C150.972 61.5858 154.099 60.6372 156.758 58.8601C159.418 57.0829 161.491 54.5569 162.715 51.6015C163.939 48.6462 164.26 45.3942 163.636 42.2568C163.012 39.1194 161.471 36.2376 159.209 33.9756C156.947 31.7137 154.065 30.1733 150.928 29.5493C147.791 28.9252 144.539 29.2455 141.583 30.4696C138.628 31.6938 136.102 33.7668 134.325 36.4265C132.548 39.0863 131.599 42.2133 131.599 45.4121C131.599 47.5362 132.017 49.6396 132.829 51.6021C133.642 53.5646 134.833 55.3478 136.335 56.8497C137.837 58.3517 139.62 59.543 141.583 60.3556C143.545 61.1683 145.649 61.5863 147.773 61.5858ZM147.773 32.3691C150.352 32.3691 152.874 33.1341 155.019 34.5673C157.164 36.0004 158.836 38.0375 159.823 40.4208C160.81 42.8041 161.068 45.4266 160.565 47.9567C160.062 50.4868 158.82 52.8109 156.996 54.635C155.171 56.4591 152.847 57.7013 150.317 58.2046C147.787 58.7078 145.165 58.4495 142.781 57.4623C140.398 56.4751 138.361 54.8034 136.928 52.6585C135.495 50.5136 134.73 47.9918 134.73 45.4121C134.729 43.6992 135.066 42.0029 135.722 40.4202C136.377 38.8376 137.338 37.3995 138.549 36.1883C139.76 34.977 141.198 34.0163 142.781 33.361C144.364 32.7057 146.06 32.3686 147.773 32.3691ZM149.076 53.7593H146.466C146.259 53.7583 146.06 53.6755 145.914 53.529C145.767 53.3824 145.684 53.1839 145.683 52.9766V45.4121H141.315C141.16 45.4121 141.009 45.3662 140.88 45.2802C140.752 45.1942 140.651 45.072 140.592 44.929C140.533 44.786 140.517 44.6286 140.548 44.4769C140.578 44.3251 140.652 44.1856 140.762 44.0762L147.219 37.6184C147.366 37.476 147.562 37.3964 147.765 37.3964C147.969 37.3964 148.165 37.476 148.312 37.6184L154.769 44.0762C154.879 44.1856 154.953 44.3251 154.983 44.4769C155.014 44.6286 154.998 44.786 154.939 44.929C154.88 45.072 154.779 45.1942 154.651 45.2802C154.522 45.3662 154.371 45.4121 154.216 45.4121H149.848V52.9766C149.847 53.1814 149.766 53.3778 149.623 53.5239C149.479 53.6701 149.284 53.7545 149.08 53.7593H149.076Z" fill="#2A9D8F"/>
<path d="M54.0103 128.592C58.0146 143.237 40.9309 184.954 40.9309 184.954C40.9309 184.954 4.98699 157.743 0.98271 143.091C0.00543289 139.602 -0.272145 135.953 0.165946 132.356C0.604036 128.758 1.74915 125.283 3.53539 122.13C5.32164 118.977 7.71376 116.208 10.5741 113.983C13.4345 111.758 16.7066 110.12 20.2022 109.164C23.6979 108.208 27.348 107.953 30.9426 108.414C34.5372 108.874 38.0053 110.04 41.1474 111.846C44.2895 113.651 47.0436 116.061 49.2511 118.935C51.4586 121.809 53.0761 125.091 54.0103 128.592Z" fill="#2A9D8F"/>
<path opacity="0.1" d="M54.0103 128.592C58.0146 143.237 40.9309 184.954 40.9309 184.954C40.9309 184.954 4.98699 157.743 0.98271 143.091C0.00543289 139.602 -0.272145 135.953 0.165946 132.356C0.604036 128.758 1.74915 125.283 3.53539 122.13C5.32164 118.977 7.71376 116.208 10.5741 113.983C13.4345 111.758 16.7066 110.12 20.2022 109.164C23.6979 108.208 27.348 107.953 30.9426 108.414C34.5372 108.874 38.0053 110.04 41.1474 111.846C44.2895 113.651 47.0436 116.061 49.2511 118.935C51.4586 121.809 53.0761 125.091 54.0103 128.592Z" fill="black"/>
<path d="M20.3853 109.426C20.3853 109.426 42.7619 143.204 41.0728 185.052" stroke="#535461" stroke-miterlimit="10"/>
<path d="M59.7222 155.37C59.7222 155.37 39.4314 144.333 42.0014 185.074C42.0014 185.074 58.9286 184.47 64.935 170.663C66.1114 167.976 66.2609 164.951 65.355 162.162C64.4492 159.373 62.551 157.013 60.0207 155.53L59.7222 155.37Z" fill="#2A9D8F"/>
<path d="M60.0642 155.439C60.0642 155.439 57.4433 176.589 42.0122 185.074" stroke="#535461" stroke-miterlimit="10"/>
<g opacity="0.1">
<path opacity="0.1" d="M272.691 101.782C272.735 101.727 272.757 101.691 272.757 101.691L272.691 101.782Z" fill="url(#paint1_linear)"/>
</g>
<path d="M169.447 25.7366V88.3127H185.992H194.743H199.22H203.298H209.195H210.498H223.133H227.775H231.258H233.534H233.599H233.716H235.386H238.866H240.221H240.366H240.399H240.483H240.661H243.511H243.697H243.741H249.263H249.438H249.656H256.15H258.087H262.728H272.921H284.526H286.736H287.144H287.526H289.863H290.201H294.653H300.518H303.354H309.16H324.718V25.7366H169.447Z" fill="url(#paint2_linear)"/>
<path d="M282.018 106.317C282.013 105.199 281.764 104.095 281.29 103.081L276.765 92.2514C276.765 92.2514 276.602 92.4771 276.321 92.7865C275.99 90.0236 274.73 84.7525 269.976 84.4139C263.511 83.9443 261.24 87.2388 262.543 87.5518C263.846 87.8649 269.332 90.0636 269.332 90.0636L271.88 94.2463C271.833 94.2135 271.789 94.1807 271.742 94.1443L271.836 94.5266L271.742 94.4574L271.836 94.8396L271.742 94.7705L274.203 104.927L269.179 109.517C269.179 109.517 264.33 111.872 261.899 111.701C261.439 111.675 260.977 111.684 260.519 111.73L260.701 111.61L262.303 110.547C263.54 109.728 264.833 108.844 265.451 107.519V107.497C265.506 107.402 265.557 107.304 265.604 107.206C266.256 105.811 266.03 104.206 266.063 102.677C266.134 101.748 266.149 100.816 266.107 99.885C265.998 98.9998 265.744 98.1387 265.353 97.3369C264.63 95.7077 263.456 94.3186 261.971 93.3326C260.448 92.3389 258.593 91.9894 256.813 92.3606C256.528 92.448 256.233 92.4993 255.936 92.5135C255.361 92.5135 254.866 92.1495 254.338 91.9274C253.666 91.6733 252.93 91.6423 252.239 91.839C251.548 92.0357 250.938 92.4496 250.501 93.0195C250.137 93.5 249.951 94.0715 249.584 94.5375C249.038 95.2328 248.153 95.6696 247.785 96.4668L247.749 96.5542C247.702 96.6266 247.659 96.7019 247.621 96.7799C247.257 97.5662 247.498 98.4799 247.421 99.3281C247.302 100.092 247.056 100.83 246.693 101.512C246.846 101.46 246.992 101.388 247.126 101.297C246.698 102.234 246.467 103.249 246.449 104.279C246.431 105.308 246.626 106.331 247.021 107.282C246.809 108.83 246.326 110.328 245.594 111.709L245.547 111.752H245.525L245.394 111.854L245.248 111.952C245.415 111.693 245.608 111.422 245.827 111.141C245.506 111.527 244.007 113.001 240.883 111.21C237.327 109.171 228.925 109.171 228.925 109.171L220.553 105.418C220.705 102.775 221.415 92.4553 223.101 91.9056C222.937 91.9686 222.771 92.0233 222.602 92.0694L222.642 92.0039L222.682 91.9456L222.722 91.891L222.766 91.8401L222.806 91.7964L222.85 91.7527L222.89 91.7199L222.937 91.6835L222.977 91.6581L223.028 91.6326L223.093 91.6035C223.093 91.6035 222.919 91.6726 222.635 91.7527L222.784 91.5052C222.866 91.4063 222.973 91.331 223.093 91.2867C223.093 91.2867 223.01 91.3195 222.871 91.3668L225.034 87.8358C225.034 87.8358 230.527 85.6516 231.823 85.324C233.119 84.9964 230.854 81.7129 224.389 82.1861C220.021 82.5064 218.601 86.9912 218.143 89.8598C218.124 89.8124 218.103 89.7688 218.084 89.7178L211.648 106.387C211.648 106.387 211.648 106.463 211.688 106.598L211.648 106.7C211.648 106.7 211.648 106.776 211.688 106.911L211.648 107.013C211.648 107.013 212.133 110.624 215.689 112.036L229.103 120.045C229.103 120.045 234.928 123.496 234.928 132.13C234.928 140.765 236.06 154.416 236.06 154.416C236.06 154.416 236.282 154.547 236.69 154.78C235.678 157.601 233.723 162.639 232.34 163.517C230.399 164.773 225.551 175.602 225.551 175.602H225.696L225.554 175.915C225.554 175.915 225.824 175.915 226.282 175.915L222.325 183.6C222.325 183.6 221.033 187.051 222.325 189.25C223.618 191.448 223.294 195.999 223.294 195.999C223.294 195.999 225.878 203.374 227.979 206.829C229.045 208.583 229.238 210.738 229.165 212.438L224.746 219.697C224.746 219.697 222.646 221.579 221.029 221.266C220.272 221.12 219.515 222.074 219.606 223.035V223.119C219.606 223.145 219.606 223.171 219.606 223.195C219.606 223.195 219.606 223.217 219.606 223.228C219.606 223.239 219.606 223.286 219.606 223.312V223.337C219.606 223.373 219.606 223.41 219.606 223.446C219.606 223.478 219.612 223.511 219.624 223.545V223.577L219.646 223.654V223.69L219.672 223.767V223.799L219.712 223.89L219.77 223.992V224.018L219.821 224.094L219.846 224.127L219.897 224.193L219.926 224.225L219.988 224.294L220.014 224.32L220.112 224.411L220.207 224.487L220.243 224.513L220.323 224.568L220.367 224.597L220.454 224.648L220.502 224.673L220.614 224.731H220.644L220.796 224.797H220.84L220.964 224.841L221.026 224.859L221.146 224.895L221.211 224.913L221.346 224.946H221.408L221.615 224.986L221.819 225.015H221.892H222.052H222.14H222.303H223.006H223.228H223.334H223.541H223.654L223.88 224.993H223.985L224.327 224.95C230.953 224.007 238.71 220.556 238.71 220.556C238.753 220.096 238.771 219.634 238.765 219.173C238.787 217.291 238.466 213.548 235.718 212.504H235.576C234.899 210.414 234.349 207.771 234.83 205.522C235.798 200.971 232.081 192.657 232.081 189.829C232.081 189.202 231.273 187.79 232.889 185.748C233.643 184.798 235.376 183.167 236.996 181.379C236.826 181.633 236.642 181.877 236.442 182.108C236.513 182.127 236.584 182.142 236.657 182.151C236.588 182.239 236.519 182.33 236.442 182.421C236.442 182.421 238.594 183.116 240.334 180.044C240.439 179.858 240.545 179.654 240.647 179.439C242.423 175.672 246.948 170.339 249.212 170.652C251.298 170.939 255.998 174.969 256.97 177.808C257.047 178.033 257.1 178.265 257.13 178.5C257.454 181.325 261.655 181.638 261.655 181.638L261.4 181.296L261.56 181.314C262.48 182.735 263.322 184.206 264.083 185.719C265.375 188.544 265.215 190.426 265.215 190.426C261.658 197.644 262.951 202.038 262.951 206.443C262.938 207.637 262.816 208.827 262.587 209.999C260.282 211.423 259.875 217.742 259.875 217.742L259.896 217.767V217.789V217.873V218.055C259.896 218.055 264.647 222.98 270.956 223.603L271.25 223.628H271.349H271.534H271.644H271.807H272.674H272.801H272.903H273.027H273.125H273.245H273.336H273.449H273.536H273.646H273.729L273.835 223.606H273.915L274.017 223.585L274.09 223.566L274.188 223.541L274.254 223.523L274.348 223.494L274.41 223.472L274.501 223.439L274.559 223.417L274.647 223.381L274.698 223.359L274.785 223.323L274.832 223.301L274.916 223.261L274.96 223.239L275.04 223.195L275.076 223.173L275.153 223.126L275.185 223.104L275.258 223.053L275.287 223.031L275.357 222.977L275.382 222.959L275.448 222.9L275.469 222.882L275.535 222.82L275.597 222.755L275.655 222.685L275.71 222.613L275.757 222.536L275.801 222.456L275.841 222.372C275.945 222.145 275.986 221.893 275.957 221.644C275.979 221.456 275.961 221.265 275.904 221.084C275.847 220.904 275.752 220.737 275.626 220.596C275.5 220.454 275.345 220.341 275.172 220.264C274.998 220.187 274.811 220.147 274.621 220.148C272.681 220.148 271.709 217.964 271.709 217.964L268.287 209.875L268.203 209.854C268.349 209.056 268.476 208.281 268.531 207.757C268.629 206.785 270.591 201.961 272.069 198.43C272.96 196.32 273.517 194.083 273.718 191.802C273.818 190.617 274.029 189.445 274.348 188.3C274.749 186.865 274.707 185.342 274.228 183.931C273.825 182.721 273.564 181.467 273.449 180.196C273.278 178.256 272.481 176.294 271.694 174.772H271.764L271.658 174.43L271.764 174.456C271.764 174.456 268.531 163.943 266.915 162.53C265.743 161.507 263.045 156.706 261.589 153.703C261.876 153.311 262.144 152.905 262.39 152.487L262.343 152.25L262.39 152.174L262.343 151.937L262.39 151.861C262.39 151.861 260.748 143.721 260.686 137.875C260.705 135.996 260.912 134.413 261.414 133.506C261.414 133.506 262.062 123.62 267.239 121.738L280.664 109.83C280.664 109.83 282.098 108.957 282.029 106.63C282.022 106.529 282.022 106.427 282.018 106.317ZM245.281 112.287L245.426 112.065L245.281 112.287ZM256.737 112.651C256.737 112.651 256.711 112.801 256.646 113.048C256.441 112.687 256.28 112.304 256.165 111.905C256.591 111.811 257.009 111.682 257.414 111.519C257.664 111.804 257.986 112.017 258.346 112.138C257.8 112.28 257.263 112.453 256.737 112.655V112.651ZM259.976 178.762C260.341 179.305 260.705 179.883 261.069 180.473C260.723 179.974 260.3 179.341 259.976 178.766V178.762Z" fill="url(#paint3_linear)"/>
<path d="M323.586 26.6867H170.255V86.8565H323.586V26.6867Z" fill="white"/>
<g opacity="0.6">
<path opacity="0.3" d="M308.221 62.4559V86.8566H186.592V49.8497H190.411V40.4214H204.932V49.8497H208.882V78.1199H213.974V68.9501H220.09V78.1199H225.183V62.4559H225.437V54.3054H230.279V62.4559H241.484V74.6835H247.723V70.8613H251.549V74.6835H257.788V38.5103H265.939V32.7805H267.34V38.5103H269.63V49.8497H273.707V40.4214H277.144V30.742H284.279V40.4214H287.715V49.8497H291.919V62.4559H297.649V54.3054H302.491V62.4559H308.221Z" fill="#2A9D8F"/>
<path opacity="0.4" d="M194.361 52.7765H189.013V55.8343H194.361V52.7765Z" fill="white"/>
<path opacity="0.4" d="M200.986 55.8307H206.333V52.7729H200.986V55.8307Z" fill="white"/>
<path opacity="0.4" d="M194.361 58.7611H189.013V61.8189H194.361V58.7611Z" fill="white"/>
<path opacity="0.4" d="M200.986 61.8189H206.333V58.7611H200.986V61.8189Z" fill="white"/>
<path opacity="0.4" d="M194.361 64.7493H189.013V67.8071H194.361V64.7493Z" fill="white"/>
<path opacity="0.4" d="M200.986 67.8034H206.333V64.7456H200.986V67.8034Z" fill="white"/>
<path opacity="0.4" d="M194.361 70.7338H189.013V73.7916H194.361V70.7338Z" fill="white"/>
<path opacity="0.4" d="M200.986 73.7917H206.333V70.7339H200.986V73.7917Z" fill="white"/>
<path opacity="0.4" d="M194.361 76.7221H189.013V79.7798H194.361V76.7221Z" fill="white"/>
<path opacity="0.4" d="M200.986 79.7799H206.333V76.7221H200.986V79.7799Z" fill="white"/>
<path opacity="0.4" d="M194.361 82.7067H189.013V85.7645H194.361V82.7067Z" fill="white"/>
<path opacity="0.4" d="M200.986 85.7609H206.333V82.7031H200.986V85.7609Z" fill="white"/>
<path opacity="0.4" d="M223.272 81.1777H210.789V82.7066H223.272V81.1777Z" fill="white"/>
<path opacity="0.4" d="M223.272 83.4711H210.789V85H223.272V83.4711Z" fill="white"/>
<path opacity="0.4" d="M223.271 85.7609H210.792V86.853H223.271V85.7609Z" fill="white"/>
<path opacity="0.4" d="M255.877 81.9423H243.395V83.4712H255.877V81.9423Z" fill="white"/>
<path opacity="0.4" d="M255.877 84.2356H243.395V85.7645H255.877V84.2356Z" fill="white"/>
<path opacity="0.4" d="M255.874 86.5289H243.395V86.8566H255.874V86.5289Z" fill="white"/>
<path opacity="0.4" d="M231.298 65.3864H227.858V69.8457H231.298V65.3864Z" fill="white"/>
<path opacity="0.4" d="M235.368 69.8457H238.808V65.3864H235.368V69.8457Z" fill="white"/>
<path opacity="0.4" d="M231.298 72.5176H227.858V76.9769H231.298V72.5176Z" fill="white"/>
<path opacity="0.4" d="M235.368 76.9733H238.808V72.514H235.368V76.9733Z" fill="white"/>
<path opacity="0.4" d="M231.298 79.6488H227.858V84.1081H231.298V79.6488Z" fill="white"/>
<path opacity="0.4" d="M235.368 84.1081H238.808V79.6488H235.368V84.1081Z" fill="white"/>
<path opacity="0.4" d="M231.295 86.7802H227.854V86.853H231.295V86.7802Z" fill="white"/>
<path opacity="0.4" d="M238.812 86.7802H235.372V86.853H238.812V86.7802Z" fill="white"/>
<path opacity="0.4" d="M262.375 41.4408H257.789V47.298H262.375V41.4408Z" fill="white"/>
<path opacity="0.4" d="M262.375 49.8461H257.789V55.7032H262.375V49.8461Z" fill="white"/>
<path opacity="0.4" d="M262.375 58.2514H257.789V64.1085H262.375V58.2514Z" fill="white"/>
<path opacity="0.4" d="M262.375 66.6605H257.789V72.5176H262.375V66.6605Z" fill="white"/>
<path opacity="0.4" d="M262.375 75.0658H257.789V80.9229H262.375V75.0658Z" fill="white"/>
<path opacity="0.4" d="M262.372 83.4711H257.789V86.8565H262.372V83.4711Z" fill="white"/>
<path opacity="0.4" d="M289.309 53.4135H272.244V58.3788H289.309V53.4135Z" fill="white"/>
<path opacity="0.4" d="M289.371 64.1123H272.306V69.0776H289.371V64.1123Z" fill="white"/>
<path opacity="0.4" d="M289.437 74.8109H272.371V79.7762H289.437V74.8109Z" fill="white"/>
<path opacity="0.4" d="M286.859 86.8566H289.164H289.499V86.296V85.6517V85.5097H289.455H287.096H286.019H272.433V86.8566H283.896H286.08H286.481H286.859Z" fill="white"/>
<path opacity="0.4" d="M192.708 43.0971H190.415V47.9386H192.708V43.0971Z" fill="white"/>
<path opacity="0.4" d="M308.22 65.3864H302.491V72.7725H308.22V65.3864Z" fill="white"/>
<path opacity="0.4" d="M308.22 76.085H302.491V83.4711H308.22V76.085Z" fill="white"/>
<path opacity="0.4" d="M308.224 86.7802H302.491V86.853H308.224V86.7802Z" fill="white"/>
<path opacity="0.1" d="M220.301 36.814H219.424C219.508 36.8205 219.593 36.8095 219.673 36.7816C219.754 36.7537 219.827 36.7096 219.889 36.652C219.951 36.5944 220.001 36.5246 220.035 36.4469C220.069 36.3692 220.086 36.2854 220.086 36.2006C220.086 36.1158 220.069 36.032 220.035 35.9543C220.001 35.8766 219.951 35.8068 219.889 35.7492C219.827 35.6916 219.754 35.6475 219.673 35.6196C219.593 35.5917 219.508 35.5807 219.424 35.5872H212.325C212.241 35.5807 212.156 35.5917 212.076 35.6196C211.996 35.6475 211.922 35.6916 211.86 35.7492C211.798 35.8068 211.748 35.8766 211.714 35.9543C211.68 36.032 211.663 36.1158 211.663 36.2006C211.663 36.2854 211.68 36.3692 211.714 36.4469C211.748 36.5246 211.798 36.5944 211.86 36.652C211.922 36.7096 211.996 36.7537 212.076 36.7816C212.156 36.8095 212.241 36.8205 212.325 36.814H213.203C213.118 36.8075 213.033 36.8185 212.953 36.8464C212.873 36.8742 212.8 36.9183 212.737 36.9759C212.675 37.0335 212.626 37.1034 212.592 37.181C212.558 37.2587 212.54 37.3426 212.54 37.4274C212.54 37.5121 212.558 37.596 212.592 37.6737C212.626 37.7514 212.675 37.8212 212.737 37.8788C212.8 37.9364 212.873 37.9805 212.953 38.0084C213.033 38.0362 213.118 38.0473 213.203 38.0407H211.976C211.891 38.0342 211.806 38.0453 211.726 38.0731C211.646 38.101 211.573 38.1451 211.511 38.2027C211.449 38.2603 211.399 38.3301 211.365 38.4078C211.331 38.4855 211.313 38.5694 211.313 38.6541C211.313 38.7389 211.331 38.8228 211.365 38.9004C211.399 38.9781 211.449 39.048 211.511 39.1056C211.573 39.1632 211.646 39.2073 211.726 39.2351C211.806 39.263 211.891 39.274 211.976 39.2675H219.074C219.229 39.2556 219.373 39.1858 219.479 39.0721C219.584 38.9584 219.642 38.8091 219.642 38.6541C219.642 38.4992 219.584 38.3499 219.479 38.2362C219.373 38.1225 219.229 38.0527 219.074 38.0407H220.301C220.456 38.0288 220.6 37.959 220.705 37.8453C220.811 37.7316 220.869 37.5823 220.869 37.4274C220.869 37.2724 220.811 37.1231 220.705 37.0094C220.6 36.8957 220.456 36.8259 220.301 36.814Z" fill="#252223"/>
<path opacity="0.1" d="M251.633 52.2269H250.756C250.91 52.215 251.054 52.1452 251.16 52.0314C251.265 51.9177 251.324 51.7685 251.324 51.6135C251.324 51.4585 251.265 51.3092 251.16 51.1955C251.054 51.0818 250.91 51.012 250.756 51.0001H243.657C243.503 51.012 243.358 51.0818 243.253 51.1955C243.148 51.3092 243.089 51.4585 243.089 51.6135C243.089 51.7685 243.148 51.9177 243.253 52.0314C243.358 52.1452 243.503 52.215 243.657 52.2269H244.534C244.45 52.2203 244.365 52.2314 244.285 52.2592C244.205 52.2871 244.131 52.3312 244.069 52.3888C244.007 52.4464 243.957 52.5163 243.923 52.5939C243.889 52.6716 243.872 52.7555 243.872 52.8402C243.872 52.925 243.889 53.0089 243.923 53.0866C243.957 53.1642 244.007 53.2341 244.069 53.2917C244.131 53.3493 244.205 53.3934 244.285 53.4213C244.365 53.4491 244.45 53.4601 244.534 53.4536H243.308C243.153 53.4655 243.009 53.5353 242.904 53.6491C242.798 53.7628 242.74 53.912 242.74 54.067C242.74 54.222 242.798 54.3713 242.904 54.485C243.009 54.5987 243.153 54.6685 243.308 54.6804H250.406C250.561 54.6685 250.705 54.5987 250.81 54.485C250.916 54.3713 250.974 54.222 250.974 54.067C250.974 53.912 250.916 53.7628 250.81 53.6491C250.705 53.5353 250.561 53.4655 250.406 53.4536H251.633C251.717 53.4601 251.802 53.4491 251.882 53.4213C251.963 53.3934 252.036 53.3493 252.098 53.2917C252.16 53.2341 252.21 53.1642 252.244 53.0866C252.278 53.0089 252.295 52.925 252.295 52.8402C252.295 52.7555 252.278 52.6716 252.244 52.5939C252.21 52.5163 252.16 52.4464 252.098 52.3888C252.036 52.3312 251.963 52.2871 251.882 52.2592C251.802 52.2314 251.717 52.2203 251.633 52.2269Z" fill="#252223"/>
<path opacity="0.1" d="M304.999 32.1035H304.122C304.276 32.0915 304.421 32.0218 304.526 31.908C304.631 31.7943 304.69 31.6451 304.69 31.4901C304.69 31.3351 304.631 31.1858 304.526 31.0721C304.421 30.9584 304.276 30.8886 304.122 30.8767H297.023C296.939 30.8702 296.854 30.8812 296.774 30.9091C296.694 30.9369 296.62 30.9811 296.558 31.0386C296.496 31.0962 296.446 31.1661 296.412 31.2438C296.378 31.3214 296.361 31.4053 296.361 31.4901C296.361 31.5748 296.378 31.6587 296.412 31.7364C296.446 31.8141 296.496 31.8839 296.558 31.9415C296.62 31.9991 296.694 32.0432 296.774 32.0711C296.854 32.099 296.939 32.11 297.023 32.1035H297.901C297.816 32.0969 297.731 32.108 297.651 32.1358C297.571 32.1637 297.497 32.2078 297.435 32.2654C297.373 32.323 297.323 32.3928 297.289 32.4705C297.256 32.5482 297.238 32.6321 297.238 32.7168C297.238 32.8016 297.256 32.8855 297.289 32.9632C297.323 33.0408 297.373 33.1107 297.435 33.1683C297.497 33.2259 297.571 33.27 297.651 33.2978C297.731 33.3257 297.816 33.3367 297.901 33.3302H296.681C296.597 33.3237 296.512 33.3347 296.432 33.3626C296.351 33.3905 296.278 33.4346 296.216 33.4922C296.154 33.5498 296.104 33.6196 296.07 33.6973C296.036 33.775 296.019 33.8588 296.019 33.9436C296.019 34.0284 296.036 34.1122 296.07 34.1899C296.104 34.2676 296.154 34.3374 296.216 34.395C296.278 34.4526 296.351 34.4967 296.432 34.5246C296.512 34.5525 296.597 34.5635 296.681 34.557H303.78C303.934 34.5451 304.078 34.4753 304.184 34.3616C304.289 34.2479 304.347 34.0986 304.347 33.9436C304.347 33.7886 304.289 33.6394 304.184 33.5256C304.078 33.4119 303.934 33.3421 303.78 33.3302H305.006C305.161 33.3183 305.305 33.2485 305.41 33.1348C305.516 33.0211 305.574 32.8718 305.574 32.7168C305.574 32.5619 305.516 32.4126 305.41 32.2989C305.305 32.1852 305.161 32.1154 305.006 32.1035H304.999Z" fill="#252223"/>
<path opacity="0.6" d="M237.228 76.1068L237.075 76.2197C237.131 76.1898 237.183 76.1518 237.228 76.1068Z" fill="url(#paint4_linear)"/>
<path opacity="0.6" d="M237.345 76.227L237.192 76.3399C237.248 76.31 237.3 76.272 237.345 76.227Z" fill="url(#paint5_linear)"/>
<path opacity="0.6" d="M237.345 76.1068L237.192 76.2197C237.248 76.1898 237.3 76.1518 237.345 76.1068Z" fill="url(#paint6_linear)"/>
<path opacity="0.6" d="M230.998 73.9559C231.085 73.914 231.111 73.7861 231.055 73.6702C230.999 73.5543 230.883 73.4943 230.796 73.5362C230.709 73.5781 230.684 73.7061 230.74 73.822C230.796 73.9379 230.911 73.9978 230.998 73.9559Z" fill="#F2F2F2"/>
</g>
<path d="M227.997 173.848L223.355 183.13C223.355 183.13 222.118 186.534 223.355 188.7C224.593 190.866 224.284 195.354 224.284 195.354C224.284 195.354 226.759 202.635 228.772 206.031C230.785 209.428 229.547 214.404 229.547 214.404L237.592 215.332C237.592 215.332 234.498 209.297 235.408 204.808C236.318 200.32 232.776 192.125 232.776 189.333C232.776 188.715 232.001 187.32 233.552 185.311C235.102 183.301 240.978 178.194 240.832 175.253L227.997 173.848Z" fill="#F7BBC3"/>
<path d="M269.015 171.682C269.015 171.682 271.985 175.795 272.331 179.799C272.435 181.05 272.679 182.284 273.059 183.48C273.516 184.87 273.557 186.363 273.176 187.775C272.869 188.906 272.667 190.062 272.571 191.23C272.38 193.482 271.848 195.691 270.991 197.782C269.575 201.266 267.715 206.02 267.606 206.978C267.449 208.525 266.678 212.238 266.678 212.238L260.489 214.56C260.489 214.56 262.346 210.072 262.346 205.74C262.346 201.408 261.108 197.076 264.53 189.956C264.53 189.956 264.687 188.099 263.438 185.314C262.189 182.53 257.402 175.256 257.402 175.256L269.015 171.682Z" fill="#F7BBC3"/>
<path opacity="0.1" d="M258.997 177.2C258.487 177.754 261.112 181.277 261.112 181.277C261.112 181.277 257.09 180.968 256.78 178.183C256.751 177.952 256.699 177.724 256.624 177.503C255.692 174.703 251.192 170.732 249.197 170.448C247.013 170.138 242.7 175.398 240.996 179.112C240.898 179.326 240.799 179.523 240.697 179.709C239.034 182.737 236.973 182.053 236.973 182.053C238.066 180.706 238.291 179.639 237.949 178.777C236.595 175.439 226.453 175.537 226.453 175.537C226.453 175.537 231.094 164.86 232.951 163.622C234.808 162.385 237.749 153.098 237.749 153.098C237.749 153.098 259.878 150.623 260.031 151.704C260.184 152.785 264.519 161.3 266.066 162.69C267.614 164.081 270.708 174.459 270.708 174.459C265.448 172.912 259.645 176.702 259.026 177.168L258.997 177.2Z" fill="black"/>
<path d="M258.997 176.891C258.487 177.444 261.112 180.968 261.112 180.968C261.112 180.968 257.09 180.659 256.78 177.874C256.751 177.642 256.699 177.414 256.624 177.193C255.692 174.394 251.192 170.422 249.197 170.138C247.013 169.829 242.7 175.089 240.996 178.802C240.898 179.017 240.799 179.214 240.698 179.399C239.034 182.428 236.981 181.74 236.981 181.74C238.073 180.393 238.299 179.326 237.956 178.464C236.602 175.126 226.46 175.224 226.46 175.224C226.46 175.224 231.102 164.547 232.958 163.309C234.815 162.072 237.756 152.785 237.756 152.785C237.756 152.785 259.885 150.31 260.038 151.391C260.191 152.472 264.527 160.987 266.074 162.377C267.621 163.768 270.715 174.139 270.715 174.139C265.455 172.592 259.652 176.381 259.033 176.847L258.997 176.891Z" fill="#8499F0"/>
<path opacity="0.1" d="M229.933 211.528L225.678 218.725C225.678 218.725 223.665 220.581 222.118 220.272C220.57 219.962 219.023 224.604 225.368 223.676C231.713 222.747 239.139 219.344 239.139 219.344C239.139 219.344 239.835 213.075 236.278 211.699L229.933 211.528Z" fill="black"/>
<path opacity="0.1" d="M267.38 209.042L270.708 216.857C270.708 216.857 271.636 219.042 273.492 219.042C275.349 219.042 275.968 222.911 269.932 222.292C263.897 221.674 259.408 216.876 259.408 216.876C259.408 216.876 259.874 209.45 262.659 208.984C264.221 208.687 265.826 208.706 267.38 209.042Z" fill="black"/>
<path d="M229.933 211.838L225.678 219.034C225.678 219.034 223.665 220.891 222.118 220.581C220.57 220.272 219.023 224.913 225.368 223.985C231.713 223.057 239.139 219.653 239.139 219.653C239.139 219.653 239.835 213.385 236.278 212.009L229.933 211.838Z" fill="#B77983"/>
<path d="M267.38 209.362L270.708 217.178C270.708 217.178 271.636 219.362 273.492 219.362C275.349 219.362 275.968 223.232 269.932 222.613C263.897 221.994 259.408 217.196 259.408 217.196C259.408 217.196 259.874 209.77 262.659 209.304C264.221 209.007 265.826 209.027 267.38 209.362Z" fill="#B77983"/>
<g opacity="0.1">
<path opacity="0.1" d="M259.255 151.409C259.412 152.501 263.744 161.005 265.291 162.396C266.711 163.673 269.437 172.523 269.874 173.957C270.154 174.012 270.431 174.073 270.708 174.154C270.708 174.154 267.613 163.786 266.066 162.392C264.519 160.998 260.187 152.487 260.031 151.406C260.002 151.191 259.095 151.114 257.672 151.136C258.64 151.162 259.23 151.238 259.255 151.409Z" fill="black"/>
<path opacity="0.1" d="M248.422 170.135C246.238 169.825 241.924 175.085 240.221 178.798C240.122 179.013 240.024 179.21 239.922 179.395C238.961 181.143 237.873 181.652 237.119 181.773C237.618 181.864 239.303 181.94 240.698 179.395C240.799 179.21 240.898 179.013 240.996 178.798C242.558 175.391 246.329 170.688 248.615 170.171L248.422 170.135Z" fill="black"/>
<path opacity="0.1" d="M258.997 176.891L259.023 176.865C259.521 176.501 263.391 173.953 267.632 173.797C263.1 173.64 258.779 176.469 258.247 176.865L258.222 176.891C257.774 177.379 259.747 180.167 260.231 180.822C260.52 180.888 260.813 180.936 261.109 180.964C261.109 180.964 258.488 177.441 258.997 176.891Z" fill="black"/>
</g>
<path d="M219.176 93.0741C219.176 93.0741 219.176 83.6349 225.365 83.169C231.553 82.703 233.737 85.9538 232.481 86.2632C231.226 86.5726 225.984 88.7385 225.984 88.7385L222.58 94.4647L219.176 93.0741Z" fill="#F7BBC3"/>
<path d="M275.203 95.2401C275.203 95.2401 275.203 85.8009 269.015 85.335C262.826 84.869 260.642 88.1197 261.898 88.4292C263.154 88.7386 268.396 90.9045 268.396 90.9045L271.8 96.6306L275.203 95.2401Z" fill="#F7BBC3"/>
<path d="M247.174 104.989C247.174 104.989 247.64 111.177 243.77 114.737C239.9 118.297 252.758 122.768 252.758 122.768L258.484 115.96C258.484 115.96 253.843 113.176 256.3 108.378L247.174 104.989Z" fill="#F7BBC3"/>
<path opacity="0.1" d="M245.947 112.262C245.947 112.262 244.553 114.446 241.149 112.418C237.745 110.391 229.7 110.391 229.7 110.391L221.655 106.678C221.655 106.678 222.274 93.3689 224.131 92.7501C224.131 92.7501 220.418 94.2972 219.333 91.203L213.145 107.606C213.145 107.606 213.61 111.166 217.014 112.557L229.857 120.449C229.857 120.449 235.427 123.852 235.427 132.363C235.427 140.874 236.519 154.336 236.519 154.336C236.519 154.336 254.454 165.18 261.735 152.494C261.735 152.494 258.793 137.485 260.806 133.768C260.806 133.768 261.425 124.02 266.376 122.163L279.208 110.391C279.208 110.391 281.683 108.844 279.827 104.355L275.495 93.6783C275.495 93.6783 272.863 97.3914 270.697 95.5349L273.172 106.059L268.222 110.7C268.222 110.7 263.58 113.023 261.258 112.884C258.935 112.746 256.307 113.813 256.307 113.813C256.307 113.813 255.215 120.001 250.272 119.382C250.279 119.379 240.84 118.913 245.947 112.262Z" fill="black"/>
<path opacity="0.1" d="M245.947 111.643C245.947 111.643 244.553 113.827 241.149 111.799C237.745 109.772 229.7 109.783 229.7 109.783L221.655 106.07C221.655 106.07 222.274 92.7609 224.131 92.1421C224.131 92.1421 220.418 93.6892 219.333 90.595L213.145 106.998C213.145 106.998 213.61 110.558 217.014 111.949L229.853 119.855C229.853 119.855 235.423 123.259 235.423 131.77C235.423 140.281 236.515 153.743 236.515 153.743C236.515 153.743 254.454 164.561 261.735 151.89C261.735 151.89 258.793 136.881 260.806 133.164C260.806 133.164 261.425 123.416 266.376 121.559L279.208 109.783C279.208 109.783 281.683 108.236 279.827 103.747L275.495 93.0704C275.495 93.0704 272.863 96.7834 270.697 94.9269L273.172 105.451L268.222 110.092C268.222 110.092 263.58 112.415 261.258 112.276C258.935 112.138 256.307 113.205 256.307 113.205C256.307 113.205 255.215 119.393 250.272 118.774C250.279 118.763 240.84 118.294 245.947 111.643Z" fill="black"/>
<path d="M245.939 111.963L245.877 112.047L245.939 111.963Z" fill="#D39999"/>
<path d="M279.208 110.096L266.365 121.858C261.414 123.714 260.795 133.463 260.795 133.463C258.782 137.176 261.724 152.188 261.724 152.188C254.443 164.878 236.5 154.045 236.5 154.045C236.5 154.045 236.464 153.601 236.406 152.818C236.355 152.134 236.285 151.187 236.209 150.062C236.107 148.606 235.991 146.848 235.881 144.94C235.638 140.772 235.415 135.916 235.415 132.072C235.415 123.561 229.846 120.158 229.846 120.158L220.236 114.231L217.025 112.258C213.621 110.864 213.155 107.308 213.155 107.308L219.344 90.9045C220.356 93.7949 223.665 92.6336 224.094 92.4698C222.274 93.2925 221.666 106.379 221.666 106.379L229.711 110.092C229.711 110.092 237.756 110.092 241.163 112.105C244.076 113.816 245.499 112.506 245.863 112.073C240.971 118.625 250.293 119.066 250.293 119.066C255.244 119.684 256.329 113.496 256.329 113.496C256.329 113.496 258.961 112.404 261.279 112.568C263.598 112.732 268.243 110.384 268.243 110.384L273.194 105.742L270.719 95.2182C272.903 97.0748 275.517 93.3617 275.517 93.3617L279.848 104.039C281.694 108.545 279.208 110.096 279.208 110.096Z" fill="#D39999"/>
<path opacity="0.1" d="M247.174 105.608C247.219 106.581 247.169 107.556 247.024 108.52C247.698 110.197 248.948 111.578 250.55 112.414C252.152 113.251 254 113.487 255.761 113.081C255.41 111.707 255.607 110.25 256.311 109.018L247.174 105.608Z" fill="black"/>
<path d="M254.071 112.648C258.259 112.648 261.654 109.253 261.654 105.065C261.654 100.877 258.259 97.4824 254.071 97.4824C249.884 97.4824 246.489 100.877 246.489 105.065C246.489 109.253 249.884 112.648 254.071 112.648Z" fill="#F7BBC3"/>
<path opacity="0.1" d="M253.948 100.751C253.883 101.519 253.828 102.339 254.181 103.023C254.378 103.367 254.623 103.681 254.909 103.955L256.496 105.589C256.997 106.029 257.385 106.582 257.628 107.202C258.087 108.731 256.733 110.249 256.777 111.847C257.019 112.227 257.38 112.518 257.803 112.674C258.226 112.831 258.689 112.844 259.121 112.713C259.471 112.579 259.801 112.397 260.1 112.171L261.633 111.122C262.816 110.314 264.054 109.441 264.647 108.137C265.269 106.765 265.058 105.178 265.087 103.671C265.155 102.754 265.169 101.834 265.127 100.915C265.024 100.039 264.778 99.1858 264.399 98.3888C263.714 96.7949 262.59 95.4279 261.16 94.4465C260.443 93.9632 259.637 93.6293 258.789 93.4648C257.941 93.3003 257.068 93.3086 256.223 93.4891C255.952 93.5744 255.67 93.6245 255.386 93.6383C254.836 93.6383 254.363 93.2743 253.857 93.0595C253.214 92.8081 252.505 92.7756 251.841 92.9671C251.177 93.1586 250.595 93.5633 250.184 94.1188C249.849 94.5921 249.656 95.1563 249.307 95.615C248.786 96.2993 247.938 96.7325 247.585 97.5152C247.232 98.2978 247.469 99.1933 247.392 100.038C247.283 100.793 247.051 101.525 246.704 102.204C247.563 101.905 247.982 100.966 248.524 100.245C248.954 99.7104 249.493 99.2733 250.105 98.9632C250.717 98.6531 251.388 98.4771 252.073 98.4471C252.547 98.4252 253.424 98.3888 253.799 98.7492C254.301 99.2043 253.999 100.198 253.948 100.751Z" fill="black"/>
<path d="M254.09 100.442C254.024 101.21 253.97 102.029 254.323 102.714C254.52 103.058 254.765 103.372 255.051 103.645L256.638 105.28C257.139 105.72 257.527 106.273 257.77 106.893C258.229 108.421 256.875 109.939 256.919 111.538C257.161 111.918 257.522 112.209 257.945 112.365C258.368 112.521 258.831 112.535 259.263 112.404C259.627 112.268 259.969 112.081 260.278 111.847L261.811 110.799C262.994 109.99 264.232 109.117 264.825 107.814C265.448 106.441 265.236 104.854 265.266 103.347C265.334 102.43 265.347 101.51 265.306 100.591C265.202 99.7152 264.956 98.8619 264.578 98.065C263.892 96.471 262.769 95.104 261.338 94.1226C260.622 93.6393 259.815 93.3054 258.967 93.1409C258.119 92.9764 257.246 92.9847 256.402 93.1652C256.13 93.2505 255.849 93.3006 255.564 93.3144C255.015 93.3144 254.541 92.9504 254.035 92.7356C253.392 92.4842 252.683 92.4518 252.02 92.6432C251.356 92.8347 250.773 93.2394 250.362 93.7949C250.028 94.2682 249.835 94.8324 249.485 95.2911C248.965 95.9754 248.116 96.4086 247.763 97.1913C247.41 97.9739 247.647 98.8695 247.57 99.714C247.461 100.469 247.229 101.201 246.882 101.88C247.741 101.581 248.16 100.642 248.702 99.9215C249.132 99.3865 249.671 98.9494 250.283 98.6393C250.895 98.3292 251.566 98.1533 252.252 98.1232C252.725 98.1014 253.602 98.065 253.977 98.4253C254.454 98.8949 254.152 99.8778 254.09 100.442Z" fill="#74585E"/>
<g opacity="0.1">
<path opacity="0.1" d="M245.885 112.036C245.928 111.982 245.95 111.949 245.95 111.949L245.885 112.036Z" fill="black"/>
<path opacity="0.1" d="M272.083 95.757C271.574 95.7675 271.08 95.5825 270.704 95.2401L270.853 95.8663C271.265 95.949 271.692 95.9111 272.083 95.757Z" fill="black"/>
<path opacity="0.1" d="M244.654 112.841C240.777 118.792 249.507 119.226 249.507 119.226C250.172 119.317 250.849 119.269 251.494 119.084C251.092 119.131 250.685 119.131 250.282 119.084C250.282 119.084 240.927 118.621 245.885 112.051C245.562 112.43 245.134 112.705 244.654 112.841Z" fill="black"/>
<path opacity="0.1" d="M260.493 112.724C261.12 112.74 261.747 112.665 262.353 112.502C261.993 112.565 261.626 112.588 261.261 112.571C260.297 112.53 259.332 112.627 258.396 112.859C259.087 112.733 259.791 112.688 260.493 112.724Z" fill="black"/>
<path opacity="0.1" d="M279.833 104.06L275.502 93.3835C275.327 93.6206 275.14 93.8479 274.941 94.0642L279.062 104.202C280.918 108.691 278.443 110.238 278.443 110.238L265.6 122C260.649 123.856 260.03 133.605 260.03 133.605C258.017 137.318 260.959 152.33 260.959 152.33C259.008 155.734 256.288 157.427 253.351 158.125C256.579 157.576 259.608 155.876 261.723 152.174C261.723 152.174 258.782 137.165 260.795 133.448C260.795 133.448 261.414 123.7 266.364 121.843L279.207 110.096C279.207 110.096 281.694 108.545 279.833 104.06Z" fill="black"/>
<path opacity="0.1" d="M224.13 92.4553C223.813 92.5776 223.485 92.6713 223.151 92.7356C221.455 94.2244 220.883 106.536 220.883 106.536L228.928 110.249C228.928 110.249 236.973 110.249 240.381 112.262C242.048 113.248 243.231 113.23 244.021 112.957C243.293 113.001 242.357 112.808 241.17 112.109C237.767 110.096 229.718 110.096 229.718 110.096L221.651 106.387C221.651 106.387 222.27 93.0741 224.13 92.4553Z" fill="black"/>
<path opacity="0.1" d="M222.784 92.7975C221.608 92.9503 219.991 92.7793 219.336 90.9082L218.972 91.8728C219.984 93.3107 221.837 93.0486 222.784 92.7975Z" fill="black"/>
</g>
<path opacity="0.1" d="M235.888 144.937C235.645 140.769 235.422 135.913 235.422 132.068C235.422 123.558 229.853 120.154 229.853 120.154L220.235 114.231C225.841 115.687 233.3 118.195 233.97 121.148C235.062 125.946 237.064 126.408 236.292 134.617C235.966 138.047 235.831 141.492 235.888 144.937Z" fill="black"/>
<path opacity="0.1" d="M237.345 156.749C237.345 156.749 238.739 161.081 234.87 163.866L237.345 156.749Z" fill="black"/>
<path opacity="0.1" d="M259.022 156.749C259.022 156.749 259.488 160 261.345 161.238L259.022 156.749Z" fill="black"/>
<path opacity="0.1" d="M239.139 219.031C239.139 219.031 231.713 222.434 225.368 223.362C222.15 223.832 220.963 222.871 220.778 221.852C220.567 223.042 221.506 224.549 225.368 223.981C231.713 223.053 239.139 219.649 239.139 219.649C239.187 219.135 239.204 218.619 239.19 218.102C239.165 218.67 239.139 219.031 239.139 219.031Z" fill="black"/>
<path opacity="0.1" d="M270.085 222.281C264.05 221.663 259.561 216.865 259.561 216.865C259.561 216.865 259.791 213.203 260.89 210.862C259.656 213.173 259.405 217.174 259.405 217.174C259.405 217.174 263.893 221.972 269.929 222.591C273.012 222.907 274.359 222.052 274.69 221.135C274.184 221.925 272.815 222.562 270.085 222.281Z" fill="black"/>
<path d="M222.744 120.82H183.924V146.699H222.744V120.82Z" fill="white"/>
<path d="M316.703 186.61C316.703 186.61 309.881 163.447 317.98 146.404C321.421 139.28 322.459 131.234 320.94 123.47C320.188 119.788 319.1 116.182 317.689 112.699" stroke="#535461" stroke-width="2" stroke-miterlimit="10"/>
<path d="M322.745 101.905C322.745 104.745 317.605 112.975 317.605 112.975C317.605 112.975 312.465 104.745 312.465 101.905C312.465 100.542 313.007 99.2347 313.971 98.2708C314.935 97.3068 316.242 96.7653 317.605 96.7653C318.969 96.7653 320.276 97.3068 321.24 98.2708C322.204 99.2347 322.745 100.542 322.745 101.905Z" fill="#2A9D8F"/>
<path d="M331.242 117.631C329.698 120.016 320.911 124.129 320.911 124.129C320.911 124.129 321.071 114.428 322.614 112.044C323.365 110.922 324.527 110.141 325.849 109.869C327.171 109.597 328.547 109.855 329.68 110.589C330.812 111.323 331.611 112.472 331.903 113.79C332.196 115.108 331.958 116.487 331.242 117.631Z" fill="#2A9D8F"/>
<path d="M330.87 144.496C328.322 145.774 318.672 144.893 318.672 144.893C318.672 144.893 323.706 136.597 326.244 135.319C326.848 134.997 327.511 134.799 328.193 134.737C328.874 134.674 329.562 134.749 330.215 134.956C330.868 135.163 331.472 135.498 331.994 135.942C332.515 136.386 332.942 136.93 333.251 137.541C333.559 138.153 333.742 138.82 333.789 139.503C333.836 140.186 333.746 140.872 333.524 141.52C333.302 142.168 332.953 142.765 332.498 143.276C332.042 143.787 331.489 144.202 330.87 144.496Z" fill="#2A9D8F"/>
<path d="M326.01 164.765C323.728 166.454 314.056 167.215 314.056 167.215C314.056 167.215 317.616 158.187 319.898 156.502C320.44 156.085 321.059 155.78 321.72 155.605C322.38 155.43 323.069 155.389 323.746 155.483C324.423 155.578 325.074 155.806 325.662 156.156C326.249 156.505 326.761 156.968 327.167 157.517C327.574 158.067 327.867 158.692 328.029 159.356C328.19 160.02 328.218 160.709 328.111 161.384C328.003 162.059 327.762 162.706 327.401 163.286C327.04 163.867 326.568 164.37 326.01 164.765Z" fill="#2A9D8F"/>
<path d="M310.117 124.679C312.152 126.655 321.639 128.705 321.639 128.705C321.639 128.705 319.316 119.284 317.27 117.304C316.289 116.374 314.981 115.869 313.629 115.897C312.278 115.925 310.992 116.484 310.05 117.453C309.108 118.423 308.585 119.724 308.596 121.076C308.606 122.427 309.149 123.721 310.106 124.675L310.117 124.679Z" fill="#2A9D8F"/>
<path d="M304.737 148.453C307.285 149.731 316.935 148.85 316.935 148.85C316.935 148.85 311.901 140.554 309.364 139.276C308.151 138.699 306.761 138.619 305.49 139.054C304.219 139.489 303.169 140.404 302.564 141.603C301.96 142.802 301.849 144.191 302.255 145.471C302.661 146.751 303.552 147.822 304.737 148.453Z" fill="#2A9D8F"/>
<path d="M302.676 172.275C304.959 173.964 314.631 174.725 314.631 174.725C314.631 174.725 311.071 165.697 308.788 164.012C307.691 163.233 306.332 162.915 305.003 163.127C303.674 163.339 302.481 164.064 301.68 165.146C300.88 166.228 300.536 167.581 300.722 168.914C300.909 170.247 301.61 171.454 302.676 172.275Z" fill="#2A9D8F"/>
<path d="M291.643 173.811C291.643 173.811 287.355 159.25 292.447 148.533C294.612 144.052 295.264 138.99 294.307 134.107C293.835 131.792 293.151 129.526 292.265 127.336" stroke="#535461" stroke-width="2" stroke-miterlimit="10"/>
<path d="M295.432 120.562C295.432 122.345 292.2 127.522 292.2 127.522C292.2 127.522 288.967 122.345 288.967 120.562C288.995 119.724 289.348 118.929 289.951 118.346C290.554 117.763 291.359 117.438 292.198 117.438C293.037 117.438 293.842 117.763 294.445 118.346C295.048 118.929 295.401 119.724 295.429 120.562H295.432Z" fill="#2A9D8F"/>
<path d="M300.776 130.445C299.808 131.941 294.282 134.529 294.282 134.529C294.282 134.529 294.384 128.428 295.352 126.932C295.577 126.562 295.873 126.241 296.223 125.987C296.574 125.734 296.972 125.553 297.394 125.456C297.816 125.36 298.252 125.348 298.679 125.424C299.105 125.499 299.511 125.659 299.874 125.894C300.238 126.129 300.55 126.435 300.793 126.793C301.036 127.151 301.204 127.554 301.288 127.979C301.372 128.403 301.37 128.84 301.282 129.264C301.194 129.687 301.022 130.089 300.776 130.445Z" fill="#2A9D8F"/>
<path d="M300.54 147.336C298.945 148.14 292.87 147.583 292.87 147.583C292.87 147.583 296.037 142.367 297.627 141.566C298.39 141.205 299.263 141.156 300.061 141.429C300.858 141.703 301.518 142.278 301.898 143.031C302.278 143.783 302.348 144.655 302.095 145.459C301.841 146.264 301.283 146.937 300.54 147.336Z" fill="#2A9D8F"/>
<path d="M297.485 160.077C296.051 161.14 289.968 161.616 289.968 161.616C289.968 161.616 292.207 155.941 293.641 154.882C294.332 154.402 295.182 154.21 296.012 154.346C296.841 154.482 297.585 154.937 298.086 155.613C298.586 156.289 298.803 157.133 298.691 157.966C298.579 158.8 298.146 159.557 297.485 160.077Z" fill="#2A9D8F"/>
<path d="M287.497 134.875C288.778 136.12 294.741 137.423 294.741 137.423C294.741 137.423 293.285 131.501 292 130.256C291.699 129.943 291.338 129.695 290.94 129.525C290.541 129.354 290.112 129.266 289.678 129.265C289.245 129.264 288.815 129.351 288.416 129.519C288.016 129.687 287.655 129.934 287.353 130.245C287.051 130.556 286.814 130.925 286.657 131.329C286.501 131.733 286.427 132.164 286.44 132.598C286.453 133.031 286.554 133.457 286.735 133.851C286.917 134.245 287.176 134.598 287.497 134.89V134.875Z" fill="#2A9D8F"/>
<path d="M284.111 149.822C285.705 150.627 291.781 150.07 291.781 150.07C291.781 150.07 288.614 144.853 287.023 144.052C286.261 143.691 285.388 143.642 284.59 143.916C283.792 144.189 283.133 144.764 282.753 145.517C282.373 146.27 282.302 147.141 282.556 147.946C282.81 148.75 283.368 149.423 284.111 149.822Z" fill="#2A9D8F"/>
<path d="M282.819 164.798C284.253 165.861 290.336 166.338 290.336 166.338C290.336 166.338 288.097 160.663 286.663 159.604C286.323 159.336 285.933 159.14 285.516 159.026C285.098 158.912 284.663 158.883 284.234 158.941C283.805 158.998 283.393 159.141 283.02 159.361C282.648 159.581 282.323 159.874 282.066 160.222C281.809 160.569 281.624 160.965 281.523 161.385C281.421 161.806 281.405 162.242 281.475 162.669C281.545 163.096 281.7 163.504 281.931 163.87C282.162 164.236 282.464 164.551 282.819 164.798Z" fill="#2A9D8F"/>
</g>
<defs>
<linearGradient id="paint0_linear" x1="147.773" y1="176.946" x2="147.773" y2="0" gradientUnits="userSpaceOnUse">
<stop stop-color="#808080" stop-opacity="0.25"/>
<stop offset="0.54" stop-color="#808080" stop-opacity="0.12"/>
<stop offset="1" stop-color="#808080" stop-opacity="0.1"/>
</linearGradient>
<linearGradient id="paint1_linear" x1="330.521" y1="139.947" x2="330.521" y2="139.925" gradientUnits="userSpaceOnUse">
<stop stop-color="#808080" stop-opacity="0.25"/>
<stop offset="0.54" stop-color="#808080" stop-opacity="0.12"/>
<stop offset="1" stop-color="#808080" stop-opacity="0.1"/>
</linearGradient>
<linearGradient id="paint2_linear" x1="105560" y1="15206.7" x2="105560" y2="4449.86" gradientUnits="userSpaceOnUse">
<stop stop-color="#808080" stop-opacity="0.25"/>
<stop offset="0.54" stop-color="#808080" stop-opacity="0.12"/>
<stop offset="1" stop-color="#808080" stop-opacity="0.1"/>
</linearGradient>
<linearGradient id="paint3_linear" x1="57297.3" y1="108558" x2="57297.3" y2="52440.4" gradientUnits="userSpaceOnUse">
<stop stop-color="#808080" stop-opacity="0.25"/>
<stop offset="0.54" stop-color="#808080" stop-opacity="0.12"/>
<stop offset="1" stop-color="#808080" stop-opacity="0.1"/>
</linearGradient>
<linearGradient id="paint4_linear" x1="356.971" y1="115.597" x2="357.035" y2="115.597" gradientUnits="userSpaceOnUse">
<stop stop-color="#808080" stop-opacity="0.25"/>
<stop offset="0.54" stop-color="#808080" stop-opacity="0.12"/>
<stop offset="1" stop-color="#808080" stop-opacity="0.1"/>
</linearGradient>
<linearGradient id="paint5_linear" x1="357.15" y1="115.754" x2="357.213" y2="115.754" gradientUnits="userSpaceOnUse">
<stop stop-color="#808080" stop-opacity="0.25"/>
<stop offset="0.54" stop-color="#808080" stop-opacity="0.12"/>
<stop offset="1" stop-color="#808080" stop-opacity="0.1"/>
</linearGradient>
<linearGradient id="paint6_linear" x1="357.15" y1="115.597" x2="357.213" y2="115.597" gradientUnits="userSpaceOnUse">
<stop stop-color="#808080" stop-opacity="0.25"/>
<stop offset="0.54" stop-color="#808080" stop-opacity="0.12"/>
<stop offset="1" stop-color="#808080" stop-opacity="0.1"/>
</linearGradient>
<clipPath id="clip0">
<rect width="340" height="225.154" fill="white"/>
</clipPath>
</defs>
</svg>
