<svg width="448" height="259" viewBox="0 0 448 259" fill="none" xmlns="http://www.w3.org/2000/svg">
<g clip-path="url(#clip0)">
<path d="M448 177.429H0V178.475H448V177.429Z" fill="#3F3D56"/>
<path d="M323.953 251.291H25.2737C22.6176 251.291 20.0702 250.236 18.1921 248.359C16.3139 246.482 15.2588 243.936 15.2588 241.282C123.53 228.706 229.767 228.706 333.968 241.282C333.968 242.596 333.709 243.898 333.206 245.112C332.703 246.327 331.965 247.43 331.035 248.359C330.105 249.289 329.001 250.026 327.786 250.529C326.571 251.032 325.269 251.291 323.953 251.291Z" fill="#2F2E41"/>
<path d="M333.968 241.871L15.2588 241.282L52.1961 179.166L52.3728 178.872V41.9753C52.3727 40.3137 52.7001 38.6683 53.3362 37.1331C53.9724 35.598 54.905 34.2031 56.0806 33.0281C57.2562 31.8532 58.6519 30.9212 60.1879 30.2854C61.724 29.6496 63.3703 29.3224 65.0329 29.3225H282.427C284.09 29.3224 285.736 29.6496 287.272 30.2854C288.808 30.9212 290.204 31.8532 291.379 33.0281C292.555 34.2031 293.487 35.598 294.124 37.1331C294.76 38.6683 295.087 40.3137 295.087 41.9753V179.814L333.968 241.871Z" fill="#3F3D56"/>
<path d="M64.7442 38.1542C63.6508 38.1554 62.6027 38.59 61.8296 39.3627C61.0565 40.1353 60.6216 41.1829 60.6204 42.2756V167.096C60.6216 168.189 61.0565 169.236 61.8296 170.009C62.6027 170.782 63.6509 171.216 64.7442 171.217H284.483C285.576 171.216 286.624 170.781 287.397 170.009C288.17 169.236 288.605 168.189 288.607 167.096V42.2756C288.605 41.1829 288.171 40.1354 287.397 39.3627C286.624 38.5901 285.576 38.1555 284.483 38.1542H64.7442Z" fill="white"/>
<path d="M65.6649 187.703C65.3271 187.704 64.9964 187.801 64.7119 187.983C64.4275 188.165 64.201 188.425 64.0592 188.731L52.6777 213.46C52.5538 213.729 52.4996 214.025 52.5201 214.32C52.5406 214.616 52.6351 214.901 52.795 215.151C52.9549 215.4 53.175 215.606 53.435 215.748C53.6951 215.89 53.9867 215.964 54.2831 215.964H293.631C293.932 215.964 294.228 215.887 294.491 215.741C294.755 215.594 294.976 215.383 295.134 215.127C295.293 214.87 295.383 214.578 295.396 214.277C295.41 213.977 295.346 213.677 295.211 213.408L282.84 188.679C282.694 188.386 282.469 188.138 282.189 187.966C281.91 187.793 281.588 187.702 281.259 187.703H65.6649Z" fill="#2F2E41"/>
<path d="M173.73 36.0935C175.194 36.0935 176.381 34.9072 176.381 33.444C176.381 31.9807 175.194 30.7945 173.73 30.7945C172.266 30.7945 171.079 31.9807 171.079 33.444C171.079 34.9072 172.266 36.0935 173.73 36.0935Z" fill="white"/>
<path d="M150.204 220.675C149.815 220.675 149.438 220.803 149.13 221.04C148.821 221.276 148.599 221.607 148.498 221.982L145.643 232.58C145.572 232.841 145.563 233.116 145.615 233.382C145.668 233.648 145.781 233.898 145.946 234.113C146.111 234.328 146.324 234.503 146.567 234.623C146.81 234.743 147.078 234.805 147.349 234.805H201.644C201.925 234.805 202.203 234.738 202.454 234.609C202.704 234.48 202.92 234.293 203.083 234.063C203.247 233.834 203.353 233.569 203.393 233.29C203.433 233.011 203.405 232.727 203.313 232.461L199.643 221.863C199.522 221.516 199.297 221.215 198.998 221.002C198.698 220.789 198.34 220.675 197.973 220.675H150.204Z" fill="#2F2E41"/>
<path d="M295.087 176.811V179.166H52.1963L52.3789 178.872V176.811H295.087Z" fill="#2F2E41"/>
<path d="M91.7385 64.0709C90.8786 64.0841 90.0591 64.4377 89.4596 65.054C88.8602 65.6703 88.5297 66.4991 88.5408 67.3586V141.88C88.5297 142.739 88.8602 143.568 89.4596 144.184C90.0591 144.801 90.8786 145.154 91.7385 145.168H257.489C258.349 145.154 259.168 144.801 259.768 144.184C260.367 143.568 260.698 142.739 260.687 141.88V67.3586C260.698 66.4991 260.367 65.6703 259.768 65.054C259.168 64.4377 258.349 64.0841 257.489 64.0709H91.7385Z" fill="#E6E6E6"/>
<path d="M186.958 145.301H247.295C247.679 145.301 248.055 145.187 248.374 144.974C248.694 144.76 248.943 144.457 249.09 144.102C249.237 143.748 249.275 143.357 249.2 142.981C249.125 142.604 248.94 142.259 248.669 141.987L210.052 103.393C209.688 103.029 209.194 102.825 208.679 102.825C208.164 102.825 207.67 103.029 207.306 103.393L197.703 112.99C197.324 113.368 196.875 113.668 196.381 113.873C195.887 114.078 195.357 114.183 194.822 114.183C194.287 114.183 193.757 114.078 193.263 113.873C192.769 113.668 192.32 113.368 191.941 112.99L161.864 82.9297C161.499 82.5662 161.005 82.3621 160.49 82.3621C159.975 82.3621 159.481 82.5662 159.117 82.9297L100.292 141.721C100.021 141.992 99.8356 142.338 99.7607 142.715C99.6858 143.091 99.7243 143.481 99.8713 143.836C100.018 144.191 100.267 144.494 100.587 144.707C100.906 144.921 101.281 145.034 101.666 145.034H187.036L186.958 145.301Z" fill="#268D81"/>
<path d="M115.188 89.1057C119.309 89.1057 122.65 85.767 122.65 81.6485C122.65 77.53 119.309 74.1913 115.188 74.1913C111.068 74.1913 107.727 77.53 107.727 81.6485C107.727 85.767 111.068 89.1057 115.188 89.1057Z" fill="#EF476F"/>
<path d="M95.7163 91.0473C95.575 91.0473 95.4394 90.9912 95.3395 90.8913C95.2395 90.7914 95.1834 90.6559 95.1833 90.5147V54.8268C95.1834 54.6855 95.2395 54.55 95.3395 54.4501C95.4394 54.3502 95.575 54.2941 95.7163 54.2941H136.754C136.824 54.2939 136.894 54.3075 136.959 54.3342C137.023 54.3608 137.082 54.4001 137.132 54.4495C137.182 54.499 137.221 54.5578 137.248 54.6225C137.275 54.6873 137.289 54.7567 137.289 54.8268C137.289 54.8969 137.275 54.9663 137.248 55.031C137.221 55.0957 137.182 55.1545 137.132 55.204C137.082 55.2535 137.023 55.2927 136.959 55.3194C136.894 55.346 136.824 55.3596 136.754 55.3594H96.2493V90.5147C96.2493 90.6559 96.1931 90.7914 96.0932 90.8913C95.9932 90.9912 95.8577 91.0473 95.7163 91.0473Z" fill="#3F3D56"/>
<path d="M253.472 91.58C253.402 91.58 253.333 91.5662 253.268 91.5394C253.204 91.5127 253.145 91.4734 253.095 91.424C253.046 91.3745 253.007 91.3158 252.98 91.2512C252.953 91.1865 252.939 91.1172 252.939 91.0473V55.892H212.434C212.293 55.892 212.157 55.8359 212.057 55.736C211.958 55.6362 211.901 55.5007 211.901 55.3594C211.901 55.2181 211.958 55.0826 212.057 54.9827C212.157 54.8829 212.293 54.8267 212.434 54.8267H253.472C253.542 54.8267 253.612 54.8405 253.676 54.8672C253.741 54.894 253.8 54.9333 253.849 54.9827C253.899 55.0322 253.938 55.0909 253.965 55.1555C253.991 55.2202 254.005 55.2894 254.005 55.3594V91.0473C254.005 91.1172 253.991 91.1865 253.965 91.2511C253.938 91.3158 253.899 91.3745 253.849 91.424C253.8 91.4734 253.741 91.5127 253.676 91.5394C253.612 91.5662 253.542 91.58 253.472 91.58Z" fill="#3F3D56"/>
<path d="M136.754 154.433H95.7163C95.6463 154.433 95.577 154.42 95.5123 154.393C95.4477 154.366 95.3889 154.327 95.3394 154.277C95.2899 154.228 95.2507 154.169 95.2239 154.104C95.1971 154.04 95.1833 153.971 95.1834 153.901V118.213C95.1831 118.143 95.1968 118.073 95.2234 118.008C95.2501 117.944 95.2894 117.885 95.3389 117.835C95.3884 117.785 95.4472 117.746 95.512 117.719C95.5767 117.692 95.6462 117.678 95.7163 117.678C95.7864 117.678 95.8559 117.692 95.9207 117.719C95.9854 117.746 96.0442 117.785 96.0938 117.835C96.1433 117.885 96.1825 117.944 96.2092 118.008C96.2359 118.073 96.2495 118.143 96.2493 118.213V153.368H136.754C136.824 153.368 136.894 153.381 136.959 153.408C137.023 153.435 137.082 153.474 137.132 153.523C137.182 153.573 137.221 153.632 137.248 153.696C137.275 153.761 137.289 153.831 137.289 153.901C137.289 153.971 137.275 154.04 137.248 154.105C137.221 154.17 137.182 154.228 137.132 154.278C137.082 154.327 137.023 154.367 136.959 154.393C136.894 154.42 136.824 154.433 136.754 154.433Z" fill="#3F3D56"/>
<path d="M253.472 154.966H212.434C212.293 154.966 212.157 154.91 212.057 154.81C211.958 154.71 211.901 154.575 211.901 154.433C211.901 154.292 211.958 154.156 212.057 154.057C212.157 153.957 212.293 153.901 212.434 153.901H252.939V118.745C252.939 118.604 252.995 118.469 253.095 118.369C253.195 118.269 253.331 118.213 253.472 118.213C253.614 118.213 253.749 118.269 253.849 118.369C253.949 118.469 254.005 118.604 254.005 118.745V154.433C254.005 154.503 253.991 154.572 253.965 154.637C253.938 154.702 253.899 154.761 253.849 154.81C253.8 154.859 253.741 154.899 253.676 154.925C253.612 154.952 253.542 154.966 253.472 154.966Z" fill="#3F3D56"/>
<path d="M425.806 146.96C426.64 147.041 427.483 146.947 428.279 146.683C429.076 146.42 429.808 145.993 430.429 145.429C431.05 144.866 431.547 144.179 431.887 143.413C432.226 142.646 432.402 141.817 432.402 140.979V128.175L424.023 127.17L420.601 139.355C420.363 140.201 420.314 141.088 420.457 141.955C420.6 142.822 420.931 143.647 421.427 144.372C421.923 145.097 422.572 145.704 423.329 146.151C424.085 146.598 424.931 146.874 425.806 146.96Z" fill="#FFB8B8"/>
<path d="M353.336 152.913C354.171 152.831 354.979 152.574 355.709 152.161C356.439 151.748 357.074 151.186 357.574 150.513C358.073 149.84 358.426 149.069 358.61 148.251C358.794 147.433 358.805 146.586 358.642 145.764L356.148 133.205L347.734 133.849L346.75 146.467C346.682 147.342 346.806 148.222 347.115 149.045C347.424 149.867 347.91 150.612 348.538 151.227C349.165 151.841 349.921 152.311 350.75 152.602C351.579 152.894 352.462 153 353.336 152.913Z" fill="#FFB8B8"/>
<path d="M377.101 247.757L386.893 248.175C384.799 208.621 385.451 175.162 391.178 152.962C398.305 178.308 400.755 211.569 400.944 248.659L411.622 247.757C416.187 203.835 418.501 163.228 413.633 133.199C398.359 124.33 381.445 124.303 362.69 134.204C362.269 167.843 368.042 206.475 377.101 247.757Z" fill="#2F2E41"/>
<path d="M378.889 245.721L374.734 247.105C374.734 247.105 365.963 244.799 368.272 250.796C370.58 256.794 377.043 255.871 377.043 255.871C377.043 255.871 384.89 261.869 388.122 257.256L386.275 247.567L378.889 245.721Z" fill="#2F2E41"/>
<path d="M408.158 245.721L412.313 247.105C412.313 247.105 421.084 244.799 418.776 250.796C416.468 256.794 410.005 255.871 410.005 255.871C410.005 255.871 402.157 261.869 398.926 257.256L400.772 247.567L408.158 245.721Z" fill="#2F2E41"/>
<path d="M374.755 31.0356C382.344 31.0356 388.497 24.8869 388.497 17.3021C388.497 9.71729 382.344 3.5686 374.755 3.5686C367.166 3.5686 361.014 9.71729 361.014 17.3021C361.014 24.8869 367.166 31.0356 374.755 31.0356Z" fill="#FFB8B8"/>
<path d="M373.08 44.7691L393.859 39.0747C388.601 32.6325 386.696 25.3486 387.826 17.3021H373.08V44.7691Z" fill="#FFB8B8"/>
<path d="M361.349 137.219C379.916 130.377 398.101 129.103 415.644 137.219C410.573 103.886 408.966 73.8085 414.39 52.89C414.923 50.865 414.716 48.7168 413.809 46.8299C412.901 44.9429 411.351 43.4402 409.437 42.5909L390.843 34.3852L373.079 37.0649L358.084 47.9422C356.502 49.0886 355.348 50.7289 354.802 52.6042C354.256 54.4795 354.351 56.483 355.071 58.2984C362.973 78.1906 364.421 105.209 361.349 137.219Z" fill="#2A9D8F"/>
<path d="M423.688 128.175L433.407 129.18L423.498 59.2888C422.953 55.4415 421.331 51.8266 418.819 48.8603C416.308 45.894 413.009 43.6972 409.303 42.5227L407.936 42.0893L409.946 79.6051L423.688 128.175Z" fill="#2A9D8F"/>
<path d="M356.739 134.814L347.301 137.346L346.001 66.7689C345.929 62.8839 346.958 59.0577 348.967 55.7311C350.976 52.4045 353.884 49.7128 357.357 47.9662L358.639 47.3216L362.603 84.6817L356.739 134.814Z" fill="#2A9D8F"/>
<path d="M388.284 27.687C388.284 27.687 399.551 14.0365 389.075 4.05655C381.807 -2.86699 371.5 0.583768 365.869 3.34679C364.346 4.06957 363.021 5.15167 362.01 6.49981C360.999 7.84796 360.33 9.4217 360.063 11.0854C359.688 13.6693 360.307 15.9881 364.284 14.9272C372.239 12.8054 369.854 19.8288 369.854 19.8288C369.854 19.8288 375.511 19.7393 375.423 24.7303C375.336 29.7214 388.284 27.687 388.284 27.687Z" fill="#2F2E41"/>
</g>
<defs>
<clipPath id="clip0">
<rect width="448" height="259" fill="white"/>
</clipPath>
</defs>
</svg>
