<svg width="107" height="102" viewBox="0 0 107 102" fill="none" xmlns="http://www.w3.org/2000/svg">
<g clip-path="url(#clip0)">
<path d="M90.7918 100.842H75.3257V37.967H104.206L90.7918 100.842Z" fill="url(#paint0_linear)"/>
<path d="M90.0214 100.842H74.8618V37.967H103.168L90.0214 100.842Z" fill="#F5F5F5"/>
<path d="M62.0415 -0.00559868L-0.000488281 17.3475L6.66824 41.2101L68.7103 23.857L62.0415 -0.00559868Z" fill="url(#paint1_linear)"/>
<path d="M61.7439 0.449266L0.73877 17.5124L7.19383 40.6104L68.199 23.5473L61.7439 0.449266Z" fill="#F4F4F4"/>
<path d="M34.9348 16.6816L19.5864 20.9746L19.9138 22.1461L35.2622 17.8532L34.9348 16.6816Z" fill="#F5F5F5"/>
<path d="M36.2444 21.3656L20.896 25.6586L21.2234 26.8301L36.5718 22.5372L36.2444 21.3656Z" fill="white"/>
<path d="M44.905 16.4172L20.2402 23.316L20.5676 24.4876L45.2324 17.5888L44.905 16.4172Z" fill="white"/>
<path d="M14.6001 28.4729C16.1089 28.0509 16.9901 26.4851 16.5683 24.9756C16.1464 23.4661 14.5813 22.5845 13.0724 23.0065C11.5635 23.4286 10.6823 24.9944 11.1042 26.5039C11.526 28.0134 13.0912 28.895 14.6001 28.4729Z" fill="white"/>
<path d="M79.0096 5.31714L18.3521 27.9091L27.112 51.4488L87.7696 28.8568L79.0096 5.31714Z" fill="url(#paint2_linear)"/>
<path d="M78.5535 6.19229L19.1895 28.3025L27.5539 50.7791L86.9179 28.6689L78.5535 6.19229Z" fill="#F7F7F7"/>
<path d="M53.1962 24.6114L38.2607 30.1742L38.685 31.3142L53.6205 25.7515L53.1962 24.6114Z" fill="#F5F5F5"/>
<path d="M54.893 29.1695L39.9575 34.7322L40.3818 35.8723L55.3173 30.3095L54.893 29.1695Z" fill="white"/>
<path d="M63.4368 23.5276L39.3628 32.4951L39.7884 33.6386L63.8624 24.6711L63.4368 23.5276Z" fill="white"/>
<path d="M33.9189 38.0649C35.3871 37.518 36.1343 35.8839 35.5876 34.415C35.041 32.9461 33.4076 32.1987 31.9393 32.7455C30.471 33.2924 29.7239 34.9265 30.2705 36.3954C30.8172 37.8643 32.4506 38.6118 33.9189 38.0649Z" fill="white"/>
<path d="M43.4395 21.3002L39.0107 46.1735L102.571 57.5L107 32.6267L43.4395 21.3002Z" fill="url(#paint3_linear)"/>
<path d="M106.107 33.0028L43.7437 21.8896L39.5395 45.5017L101.902 56.6149L106.107 33.0028Z" fill="#FAFAFA"/>
<path d="M59.2225 33.1914L59.0093 34.389L74.6993 37.185L74.9125 35.9874L59.2225 33.1914Z" fill="#F5F5F5"/>
<path d="M58.371 37.9816L58.1577 39.1793L73.8477 41.9753L74.061 40.7776L58.371 37.9816Z" fill="white"/>
<path d="M58.7958 35.5864L58.5825 36.7841L83.7963 41.2772L84.0095 40.0796L58.7958 35.5864Z" fill="white"/>
<path d="M54.7673 35.4852C55.0421 33.9421 54.0144 32.4683 52.4719 32.1935C50.9295 31.9186 49.4563 32.9467 49.1816 34.4898C48.9068 36.0329 49.9345 37.5067 51.477 37.7816C53.0194 38.0564 54.4926 37.0283 54.7673 35.4852Z" fill="white"/>
<path d="M25.1971 37.2274L14.7577 29.9152H0.303711V37.2274V40.8094V102H90.6392V37.2274H25.1971Z" fill="url(#paint4_linear)"/>
<path d="M25.5872 37.967L15.3077 30.869H1.07666V37.967V41.4448V100.842H90.0216V37.967H25.5872Z" fill="white"/>
<path d="M69.8618 86.0035C69.863 86.2854 69.7523 86.5563 69.554 86.7566C69.3557 86.9569 69.0861 87.0703 68.8043 87.0718H22.2959C22.0141 87.0703 21.7444 86.9569 21.5461 86.7566C21.3478 86.5563 21.2371 86.2854 21.2383 86.0035V54.2188C21.2371 53.9369 21.3478 53.6661 21.5461 53.4658C21.7444 53.2655 22.0141 53.1521 22.2959 53.1505H68.8043C69.0861 53.1521 69.3557 53.2655 69.554 53.4658C69.7523 53.6661 69.863 53.9369 69.8618 54.2188" fill="url(#paint5_linear)"/>
<path d="M69.3144 85.4855C69.3144 85.758 69.2062 86.0192 69.0137 86.2119C68.8211 86.4045 68.56 86.5127 68.2876 86.5127H22.8515C22.5792 86.5127 22.318 86.4045 22.1254 86.2119C21.9329 86.0192 21.8247 85.758 21.8247 85.4855V54.7604C21.8247 54.4879 21.9329 54.2266 22.1254 54.034C22.318 53.8414 22.5792 53.7331 22.8515 53.7331H68.2818C68.5541 53.7331 68.8152 53.8414 69.0078 54.034C69.2004 54.2266 69.3085 54.4879 69.3085 54.7604" fill="white"/>
<path d="M66.2473 55.1536H24.9314C24.2145 55.1536 23.6333 55.735 23.6333 56.4523V83.9021C23.6333 84.6193 24.2145 85.2008 24.9314 85.2008H66.2473C66.9642 85.2008 67.5454 84.6193 67.5454 83.9021V56.4523C67.5454 55.735 66.9642 55.1536 66.2473 55.1536Z" fill="url(#paint6_linear)"/>
<path d="M65.6608 55.8858H25.4715C24.7545 55.8858 24.1733 56.4673 24.1733 57.1845V83.0569C24.1733 83.7741 24.7545 84.3555 25.4715 84.3555H65.6608C66.3778 84.3555 66.959 83.7741 66.959 83.0569V57.1845C66.959 56.4673 66.3778 55.8858 65.6608 55.8858Z" fill="white"/>
<path d="M21.7939 84.0959L33.7396 70.4032C33.9456 70.1669 34.1963 69.9738 34.4772 69.8347C34.758 69.6957 35.0636 69.6136 35.3763 69.5932C35.689 69.5727 36.0027 69.6143 36.2993 69.7155C36.5959 69.8168 36.8695 69.9757 37.1045 70.1831L40.4459 73.1356C40.8731 73.5126 41.4214 73.7238 41.991 73.7305C42.5607 73.7372 43.1138 73.5391 43.5497 73.1723L53.7734 64.576C54.2438 64.1794 54.8495 63.9806 55.4633 64.0214C56.0771 64.0622 56.6512 64.3393 57.065 64.7947L69.6107 78.6091C69.9598 78.9934 70.1736 79.4815 70.2194 79.9988L70.7035 85.4474C70.7328 85.7763 70.6933 86.1077 70.5876 86.4206C70.4819 86.7334 70.3122 87.0208 70.0893 87.2645C69.8665 87.5081 69.5954 87.7027 69.2933 87.8357C68.9912 87.9688 68.6646 88.0375 68.3345 88.0374H23.5863C22.9682 88.0373 22.3745 87.7964 21.9309 87.3658C21.4873 86.9352 21.2288 86.3487 21.2101 85.7306C21.1919 85.1316 21.4004 84.5477 21.7939 84.0959Z" fill="#2A9D8F"/>
<path d="M29.3263 63.1012C30.7894 63.1012 31.9754 61.9147 31.9754 60.451C31.9754 58.9874 30.7894 57.8008 29.3263 57.8008C27.8633 57.8008 26.6772 58.9874 26.6772 60.451C26.6772 61.9147 27.8633 63.1012 29.3263 63.1012Z" fill="#FF5252"/>
</g>
<defs>
<linearGradient id="paint0_linear" x1="89.7665" y1="100.842" x2="89.7665" y2="37.967" gradientUnits="userSpaceOnUse">
<stop stop-color="#808080" stop-opacity="0.25"/>
<stop offset="0.54" stop-color="#808080" stop-opacity="0.12"/>
<stop offset="1" stop-color="#808080" stop-opacity="0.1"/>
</linearGradient>
<linearGradient id="paint1_linear" x1="28008.4" y1="5166.82" x2="27404.1" y2="-1899.08" gradientUnits="userSpaceOnUse">
<stop stop-color="#808080" stop-opacity="0.25"/>
<stop offset="0.54" stop-color="#808080" stop-opacity="0.12"/>
<stop offset="1" stop-color="#808080" stop-opacity="0.1"/>
</linearGradient>
<linearGradient id="paint2_linear" x1="38662.1" y1="11395.1" x2="38662.1" y2="3498.19" gradientUnits="userSpaceOnUse">
<stop stop-color="#808080" stop-opacity="0.25"/>
<stop offset="0.54" stop-color="#808080" stop-opacity="0.12"/>
<stop offset="1" stop-color="#808080" stop-opacity="0.1"/>
</linearGradient>
<linearGradient id="paint3_linear" x1="21668.4" y1="31486.1" x2="23110" y2="15442.7" gradientUnits="userSpaceOnUse">
<stop stop-color="#808080" stop-opacity="0.25"/>
<stop offset="0.54" stop-color="#808080" stop-opacity="0.12"/>
<stop offset="1" stop-color="#808080" stop-opacity="0.1"/>
</linearGradient>
<linearGradient id="paint4_linear" x1="28004.3" y1="50135.4" x2="28004.3" y2="14725.1" gradientUnits="userSpaceOnUse">
<stop stop-color="#808080" stop-opacity="0.25"/>
<stop offset="0.54" stop-color="#808080" stop-opacity="0.12"/>
<stop offset="1" stop-color="#808080" stop-opacity="0.1"/>
</linearGradient>
<linearGradient id="paint5_linear" x1="45.5493" y1="87.0718" x2="45.5493" y2="53.1491" gradientUnits="userSpaceOnUse">
<stop stop-color="#B3B3B3" stop-opacity="0.25"/>
<stop offset="0.54" stop-color="#B3B3B3" stop-opacity="0.1"/>
<stop offset="1" stop-color="#B3B3B3" stop-opacity="0.05"/>
</linearGradient>
<linearGradient id="paint6_linear" x1="13671.5" y1="17501.1" x2="13671.5" y2="11348.4" gradientUnits="userSpaceOnUse">
<stop stop-color="#B3B3B3" stop-opacity="0.25"/>
<stop offset="0.54" stop-color="#B3B3B3" stop-opacity="0.1"/>
<stop offset="1" stop-color="#B3B3B3" stop-opacity="0.05"/>
</linearGradient>
<clipPath id="clip0">
<rect width="107" height="102" fill="white"/>
</clipPath>
</defs>
</svg>
