<svg width="478" height="333" viewBox="0 0 478 333" fill="none" xmlns="http://www.w3.org/2000/svg">
<g clip-path="url(#clip0)">
<path d="M399.386 51.2038L362.513 51.5633C360.779 43.0235 354.956 20.6164 360.2 14.5047C360.439 12.2044 361.556 10.085 363.317 8.58767C365.078 7.09036 367.348 6.33053 369.655 6.46634C375.37 -2.48747 384.89 -1.14312 391.324 4.44893C397.799 6.68511 400.24 10.6578 399.386 16.049C404.182 20.2501 405.067 25.3613 402.914 31.1795L399.386 51.2038Z" fill="#2F2E41"/>
<path d="M395.837 73.9383L369.233 70.2516L363.913 62.4686C371.242 57.6028 373.836 50.8065 370.461 41.5775L388.879 41.1679C388.016 49.3864 390.732 55.7498 398.293 59.6012L395.837 73.9383Z" fill="#FFB9B9"/>
<path d="M362.944 314.097L361.926 328.016C361.88 328.646 361.969 329.278 362.188 329.871C362.406 330.464 362.748 331.003 363.192 331.452C363.635 331.902 364.17 332.251 364.759 332.477C365.348 332.703 365.979 332.8 366.609 332.762L373.752 332.329C374.083 332.309 374.406 332.216 374.697 332.057C374.988 331.898 375.241 331.677 375.437 331.409C375.633 331.141 375.767 330.834 375.831 330.508C375.895 330.183 375.887 329.847 375.806 329.525L371.841 313.652L362.944 314.097Z" fill="#E6E6E6"/>
<path d="M386.069 313.652L382.104 329.525C382.023 329.847 382.015 330.183 382.079 330.508C382.143 330.834 382.277 331.141 382.473 331.409C382.669 331.677 382.922 331.898 383.213 332.057C383.504 332.216 383.827 332.309 384.158 332.329L391.301 332.762C391.931 332.8 392.561 332.703 393.151 332.477C393.74 332.251 394.275 331.902 394.718 331.453C395.162 331.003 395.504 330.464 395.722 329.871C395.941 329.278 396.03 328.646 395.984 328.016L394.966 314.097L386.069 313.652Z" fill="#E6E6E6"/>
<path d="M395.428 316.03L385.788 315.062L376.191 212.393L372.564 314.731L363.094 314.391L347.132 172.659H408.115L395.428 316.03Z" fill="#2A9D8F"/>
<path d="M380.693 48.1316C390.865 48.1316 399.111 39.8787 399.111 29.6982C399.111 19.5177 390.865 11.2648 380.693 11.2648C370.521 11.2648 362.275 19.5177 362.275 29.6982C362.275 39.8787 370.521 48.1316 380.693 48.1316Z" fill="#FFB9B9"/>
<path d="M417.12 175.936L342.63 176.755C353.685 134.636 360.297 95.5106 348.769 68.613L367.187 59.6012C376.068 68.8717 385.958 67.916 396.655 58.7819L414.255 63.2878C411.24 98.5599 412.591 136.337 417.12 175.936Z" fill="#2A9D8F"/>
<path d="M322.166 132.515L368.415 150.949L378.755 153.992C379.217 154.129 379.703 154.17 380.181 154.114C380.66 154.057 381.123 153.905 381.541 153.665C381.959 153.425 382.325 153.103 382.616 152.719C382.907 152.334 383.117 151.894 383.234 151.426C383.439 150.605 383.347 149.739 382.975 148.979C382.602 148.22 381.972 147.617 381.198 147.278L370.461 143.985L338.128 125.142L344.881 107.323L330.76 99.745L322.166 132.515Z" fill="#FFB9B9"/>
<path d="M322.575 98.9257C331.374 102.361 338.373 108.225 343.858 116.13L361.048 91.1428L348.769 68.6131L322.575 98.9257Z" fill="#2A9D8F"/>
<path d="M401.451 26.7107C393.976 24.783 386.626 24.5184 379.482 26.9635C374.931 29.1695 369.466 28.9662 363.388 27.1486V8.75763L396.201 9.63339L401.451 26.7107Z" fill="#2F2E41"/>
<path d="M368.261 111.038C366.815 111.04 365.429 111.615 364.406 112.639C363.383 113.662 362.808 115.05 362.806 116.498L364.96 161.608C364.961 163.055 365.536 164.443 366.559 165.466C367.582 166.49 368.968 167.066 370.414 167.067H395.032C396.478 167.066 397.864 166.49 398.887 165.466C399.91 164.443 400.485 163.055 400.487 161.608L402.64 116.498C402.638 115.05 402.063 113.662 401.04 112.639C400.018 111.615 398.631 111.04 397.185 111.038H368.261Z" fill="#3F3D56"/>
<path d="M438.107 129.108L397.795 145.173L394.754 146.385C394.657 146.423 394.56 146.455 394.457 146.487L384.268 149.488C382.965 149.871 381.162 148.114 380.107 146.902C379.584 146.318 379.288 145.566 379.273 144.782C379.257 143.998 379.522 143.235 380.021 142.63C380.161 142.468 380.316 142.318 380.484 142.183C380.876 141.877 381.339 141.673 381.829 141.59L392.008 139.586C392.373 139.514 392.724 139.383 393.047 139.198L397.795 136.429L422.443 122.066C423.129 121.667 423.65 121.038 423.916 120.29C424.181 119.542 424.172 118.725 423.891 117.983L419.186 105.565C418.898 104.805 418.896 103.966 419.18 103.204C419.464 102.443 420.016 101.811 420.731 101.427L428.526 97.2463C428.971 97.007 429.465 96.872 429.97 96.8514C430.475 96.8308 430.978 96.9253 431.442 97.1276C431.905 97.3298 432.316 97.6347 432.645 98.0193C432.973 98.4038 433.21 98.8579 433.338 99.3474L440.104 125.142C440.312 125.933 440.224 126.773 439.856 127.504C439.488 128.234 438.866 128.804 438.107 129.108Z" fill="#FFB9B9"/>
<path d="M440.449 94.4197C431.65 97.8555 424.651 103.719 419.166 111.624L401.976 86.6367L414.255 63.2878L440.449 94.4197Z" fill="#2A9D8F"/>
<path d="M392.95 46.1049C384.893 49.4592 376.445 49.323 367.651 46.1049C370.21 41.7335 366.385 38.3099 364.421 33.8971L397.257 32.9205C394.746 36.754 391.041 41.2831 392.95 46.1049Z" fill="white"/>
<path d="M396.909 33.6499L396.528 33.269L397.066 32.7302L400.282 28.9741L400.691 29.3243L397.461 33.0955L396.909 33.6499Z" fill="white"/>
<path d="M362.171 31.3666L361.826 31.7807L365.056 34.4744L365.401 34.0604L362.171 31.3666Z" fill="white"/>
<path d="M397.837 36.8172L392.183 45.7056L392.638 45.9949L398.291 37.1065L397.837 36.8172Z" fill="white"/>
<path d="M362.764 36.8165L362.31 37.1058L367.962 45.995L368.416 45.7057L362.764 36.8165Z" fill="white"/>
<path d="M398.872 135.667V145.427L395.477 146.78C395.369 146.822 395.261 146.858 395.146 146.894L383.772 150.244C382.318 150.671 380.305 148.71 379.128 147.357C378.545 146.705 378.214 145.866 378.197 144.991C378.179 144.116 378.475 143.264 379.031 142.589C379.189 142.407 379.362 142.24 379.548 142.089C379.987 141.748 380.503 141.521 381.05 141.428L392.413 139.191C392.82 139.111 393.212 138.965 393.572 138.758L398.872 135.667Z" fill="white"/>
<path d="M403.792 100.854H401.846C401.846 73.3182 396.182 54.1292 390.661 54.1292L390.175 52.1823C395.126 52.1823 398.282 60.1686 400.058 66.8685C402.466 75.9514 403.792 88.0209 403.792 100.854Z" fill="#3F3D56"/>
<path d="M359.052 94.0397H357.106C357.106 68.8216 362.81 53.1558 371.209 53.1558L370.723 55.1026C364.913 55.1026 359.052 67.1423 359.052 94.0397Z" fill="#3F3D56"/>
<path d="M402.819 106.208C405.505 106.208 407.682 104.028 407.682 101.34C407.682 98.6523 405.505 96.4732 402.819 96.4732C400.133 96.4732 397.956 98.6523 397.956 101.34C397.956 104.028 400.133 106.208 402.819 106.208Z" fill="#3F3D56"/>
<path d="M351.271 105.721H349.326C349.326 98.7431 353.252 93.0662 358.079 93.0662V95.0131C354.325 95.0131 351.271 99.8165 351.271 105.721Z" fill="#3F3D56"/>
<path d="M366.832 105.721H364.887C364.887 99.8165 361.833 95.0131 358.079 95.0131V93.0662C362.906 93.0662 366.832 98.7431 366.832 105.721Z" fill="#3F3D56"/>
<path d="M365.86 108.154C366.934 108.154 367.805 107.283 367.805 106.207C367.805 105.132 366.934 104.261 365.86 104.261C364.785 104.261 363.915 105.132 363.915 106.207C363.915 107.283 364.785 108.154 365.86 108.154Z" fill="#3F3D56"/>
<path d="M350.298 108.154C351.372 108.154 352.243 107.283 352.243 106.207C352.243 105.132 351.372 104.261 350.298 104.261C349.224 104.261 348.353 105.132 348.353 106.207C348.353 107.283 349.224 108.154 350.298 108.154Z" fill="#3F3D56"/>
<path d="M115.878 40.7815L81.7145 46.5716C80.8706 46.7158 80.0032 46.5414 79.2803 46.0824C78.5574 45.6233 78.0303 44.9122 77.8011 44.0866C75.3329 35.1707 70.1725 23.5396 75.1827 17.7008C75.438 15.2445 76.6299 12.9813 78.5105 11.3824C80.3911 9.78352 82.8153 8.97212 85.2785 9.11714C91.3815 -0.444109 101.547 0.991452 108.417 6.96287C115.332 9.35076 117.939 13.593 117.027 19.3499C120.014 21.9668 121.58 24.9144 121.911 28.1497C122.067 29.95 121.838 31.7631 121.239 33.4679C120.64 35.1727 119.685 36.7301 118.437 38.036L115.878 40.7815Z" fill="#2F2E41"/>
<path d="M110.566 67.6997L84.0823 66.1405C86.6778 60.1783 87.7145 54.437 86.6788 48.9893H106.412C106.367 53.172 108.447 60.4074 110.566 67.6997Z" fill="#9F616A"/>
<path d="M78.6867 312.626L77.6005 327.489C77.5513 328.162 77.6464 328.837 77.8795 329.47C78.1125 330.103 78.4781 330.679 78.9517 331.159C79.4253 331.639 79.9959 332.012 80.6254 332.253C81.2548 332.494 81.9285 332.598 82.6012 332.557L90.2289 332.094C90.5823 332.073 90.9267 331.974 91.2375 331.804C91.5483 331.634 91.818 331.398 92.0273 331.113C92.2367 330.827 92.3806 330.498 92.4488 330.151C92.517 329.803 92.5078 329.444 92.4219 329.1L88.188 312.151L78.6867 312.626Z" fill="#E6E6E6"/>
<path d="M103.381 312.151L99.1469 329.1C99.0611 329.444 99.0519 329.803 99.1201 330.151C99.1883 330.498 99.3322 330.827 99.5415 331.112C99.7509 331.398 100.021 331.634 100.331 331.804C100.642 331.974 100.987 332.073 101.34 332.094L108.968 332.557C109.64 332.598 110.314 332.494 110.943 332.253C111.573 332.012 112.144 331.639 112.617 331.159C113.091 330.679 113.456 330.103 113.689 329.47C113.922 328.837 114.018 328.162 113.968 327.489L112.882 312.626L103.381 312.151Z" fill="#E6E6E6"/>
<path d="M113.374 314.69L103.081 313.656L92.8332 204.022L88.9602 313.302L78.8474 312.94L61.8025 161.593H126.923L113.374 314.69Z" fill="#2A9D8F"/>
<path d="M97.066 55.2986C107.928 55.2986 116.733 46.4859 116.733 35.6147C116.733 24.7436 107.928 15.9308 97.066 15.9308C86.204 15.9308 77.3987 24.7436 77.3987 35.6147C77.3987 46.4859 86.204 55.2986 97.066 55.2986Z" fill="#9F616A"/>
<path d="M119.232 26.2114C111.25 24.8201 103.402 24.6291 95.7725 26.3939C90.9127 27.9861 85.0766 27.8394 78.5862 26.5275V13.2535L113.626 13.8856L119.232 26.2114Z" fill="#2F2E41"/>
<path d="M110.155 51.4085C101.551 54.9903 92.5292 54.8449 83.1388 51.4085C85.8712 46.7406 81.7868 43.0847 79.6899 38.3725L114.753 37.3296C112.072 41.4232 108.115 46.2596 110.155 51.4085Z" fill="white"/>
<path d="M77.2757 35.6845L76.9309 36.0986L80.3796 38.9749L80.7244 38.5608L77.2757 35.6845Z" fill="white"/>
<path d="M115.388 41.5001L109.352 50.9916L109.806 51.281L115.843 41.7895L115.388 41.5001Z" fill="white"/>
<path d="M77.9042 41.4997L77.45 41.789L83.4854 51.2814L83.9397 50.9921L77.9042 41.4997Z" fill="white"/>
<path d="M59.6753 125.39L44.6157 116.035L57.4589 78.3881C58.8913 74.5034 61.6349 71.2418 65.2154 69.1671L69.5419 66.6602L69.918 104.639L59.6753 125.39Z" fill="#2A9D8F"/>
<path d="M124.77 143.674L122.542 124.574C122.423 114.493 124.136 104.746 128.222 95.7653L130.3 67.6997L107.451 58.3446C107.381 58.8106 107.321 59.2763 107.254 59.7422L96.5454 65.1011L86.1017 62.7255L86.1595 59.384L65.3878 68.7392C72.257 100.702 68.5104 133.893 56.6978 173.099L84.0627 180.587L84.2902 167.436L108.678 165.693C108.929 169.96 109.131 174.151 109.248 178.249C123.01 183.319 123.483 183.235 136.021 175.975C131.028 165.468 127.074 154.534 124.77 143.674Z" fill="#2A9D8F"/>
<path d="M159.899 120.712L145.878 116.035L123.451 89.9042L130.299 67.7L161.457 111.358L159.899 120.712Z" fill="#2A9D8F"/>
<path d="M115.958 140.942C116.187 141.95 116.806 142.825 117.68 143.377C118.553 143.928 119.609 144.11 120.617 143.883L132.519 141.186L130.798 133.582L118.896 136.279C117.889 136.508 117.013 137.127 116.462 138.002C115.911 138.876 115.73 139.934 115.958 140.942V140.942Z" fill="#E6E6E6"/>
<path d="M126.664 132.147L133.415 144.62C144.77 141.451 154.611 131.458 164.053 119.673L161.457 111.357L145.359 115.515L126.664 132.147Z" fill="#2A9D8F"/>
<path d="M38.6438 93.0199L51.6036 95.3359L81.2262 137.491L65.4893 133.785L38.6438 93.0199Z" fill="#E6E6E6"/>
<path d="M36.345 92.5038C36.1475 92.5068 35.9544 92.5628 35.786 92.666C35.6175 92.7692 35.4799 92.9159 35.3875 93.0905C35.295 93.2652 35.2512 93.4616 35.2605 93.659C35.2698 93.8565 35.332 94.0478 35.4405 94.213L63.1297 136.26C63.2842 136.495 63.5229 136.662 63.7966 136.726L76.6796 139.76C76.8968 139.811 77.1244 139.795 77.3322 139.713C77.5401 139.632 77.7183 139.489 77.8433 139.304C77.9683 139.119 78.0341 138.901 78.0321 138.677C78.03 138.454 77.9601 138.237 77.8317 138.054L47.4307 94.7911C47.3483 94.6732 47.2434 94.5727 47.1222 94.4955C47.0009 94.4182 46.8656 94.3656 46.724 94.3406L36.5526 92.5226C36.4841 92.5103 36.4146 92.504 36.345 92.5038Z" fill="#3F3D56"/>
<path d="M53.6177 122.567L54.3872 130.325L66.5308 129.118C67.5587 129.016 68.504 128.51 69.1587 127.71C69.8134 126.91 70.1239 125.883 70.0219 124.854C69.9199 123.826 69.4137 122.879 68.6147 122.224C67.8157 121.569 66.7894 121.258 65.7615 121.36L53.6177 122.567Z" fill="#E6E6E6"/>
<path d="M43.0581 121.668C43.0757 124.314 44.1373 126.845 46.0114 128.71C47.8855 130.575 50.4203 131.624 53.0634 131.627H55.0602L56.5139 119.502L44.4775 115.165L43.0581 121.668Z" fill="#2A9D8F"/>
<path d="M113.794 38.6709L113.413 38.29L113.988 37.7146L117.423 33.7026L117.831 34.0528L114.383 38.0799L113.794 38.6709Z" fill="white"/>
<path d="M478 331.923H0V333H478V331.923Z" fill="#3F3D56"/>
<path d="M182.48 331.384H295.52V194.157C295.52 186.891 288.369 180.979 279.579 180.979H198.421C189.631 180.979 182.48 186.891 182.48 194.157V331.384Z" fill="#E6E6E6"/>
<path d="M191.092 325.709H286.908V209.393C286.908 203.234 280.846 198.223 273.396 198.223H204.604C197.154 198.223 191.092 203.234 191.092 209.393V325.709Z" fill="white"/>
<path d="M181.626 170.3C178.832 170.3 176.559 172.179 176.559 174.489V186.58C176.559 188.89 178.832 190.769 181.626 190.769H296.375C299.168 190.769 301.441 188.89 301.441 186.58V174.489C301.441 172.179 299.168 170.3 296.375 170.3H181.626Z" fill="#3F3D56"/>
<path d="M205.185 310.794C203.873 310.798 202.616 311.322 201.689 312.25C200.761 313.178 200.238 314.436 200.235 315.749C200.238 317.062 200.761 318.32 201.689 319.248C202.616 320.177 203.873 320.7 205.185 320.704H214.451V310.794H205.185Z" fill="#3F3D56"/>
<path d="M222.956 310.794H213.944V320.704H222.956C224.268 320.7 225.525 320.177 226.452 319.248C227.38 318.32 227.903 317.062 227.906 315.749C227.903 314.436 227.38 313.178 226.452 312.25C225.525 311.322 224.268 310.798 222.956 310.794Z" fill="#2A9D8F"/>
<path opacity="0.2" d="M226.186 312.008C226.967 312.904 227.398 314.052 227.399 315.241C227.395 316.554 226.872 317.812 225.944 318.74C225.017 319.669 223.76 320.192 222.448 320.196H213.944V320.704H222.956C224.268 320.7 225.525 320.177 226.452 319.248C227.38 318.32 227.903 317.062 227.906 315.749C227.905 315.038 227.751 314.336 227.454 313.691C227.157 313.045 226.725 312.471 226.186 312.008Z" fill="black"/>
<path d="M247 236.164C246.097 235.212 244.854 234.655 243.543 234.617C242.232 234.578 240.959 235.06 240.002 235.958C239.05 236.861 238.494 238.105 238.455 239.417C238.416 240.729 238.898 242.004 239.795 242.962L246.151 249.71L253.356 242.913L247 236.164Z" fill="#3F3D56"/>
<path d="M259.189 249.107L253.007 242.543L245.803 249.34L251.985 255.904C252.887 256.857 254.13 257.413 255.441 257.452C256.752 257.491 258.025 257.008 258.983 256.111C259.934 255.207 260.491 253.964 260.529 252.651C260.568 251.339 260.086 250.065 259.189 249.107Z" fill="#2A9D8F"/>
<path opacity="0.2" d="M260.523 252.292C260.407 253.475 259.867 254.576 259.004 255.392C258.047 256.29 256.773 256.772 255.462 256.733C254.151 256.695 252.908 256.138 252.006 255.185L246.172 248.992L245.803 249.34L251.985 255.904C252.887 256.856 254.13 257.413 255.441 257.452C256.752 257.49 258.025 257.008 258.983 256.111C259.498 255.622 259.903 255.028 260.169 254.369C260.435 253.71 260.555 253.002 260.523 252.292Z" fill="black"/>
<path d="M220.623 251.788C219.721 250.835 218.478 250.279 217.167 250.24C215.856 250.201 214.583 250.684 213.625 251.581C212.674 252.485 212.118 253.728 212.079 255.041C212.04 256.353 212.522 257.627 213.419 258.585L219.775 265.334L226.979 258.536L220.623 251.788Z" fill="#3F3D56"/>
<path d="M232.813 264.73L226.631 258.167L219.427 264.964L225.609 271.527C226.511 272.48 227.754 273.037 229.065 273.075C230.376 273.114 231.649 272.632 232.607 271.734C233.558 270.831 234.115 269.587 234.153 268.275C234.192 266.963 233.71 265.688 232.813 264.73Z" fill="#2A9D8F"/>
<path opacity="0.2" d="M234.147 267.915C234.031 269.098 233.491 270.199 232.628 271.016C231.671 271.913 230.397 272.396 229.086 272.357C227.775 272.318 226.532 271.762 225.63 270.809L219.796 264.615L219.427 264.964L225.609 271.527C226.511 272.48 227.754 273.036 229.065 273.075C230.376 273.114 231.649 272.632 232.607 271.734C233.123 271.246 233.527 270.652 233.793 269.993C234.059 269.334 234.179 268.625 234.147 267.915Z" fill="black"/>
<path d="M247 266.334C246.097 265.381 244.854 264.825 243.543 264.786C242.232 264.747 240.959 265.23 240.002 266.127C239.05 267.031 238.494 268.274 238.455 269.587C238.416 270.899 238.898 272.173 239.795 273.131L246.151 279.88L253.356 273.082L247 266.334Z" fill="#3F3D56"/>
<path d="M259.189 279.276L253.007 272.713L245.803 279.51L251.985 286.073C252.887 287.026 254.13 287.583 255.441 287.621C256.752 287.66 258.025 287.178 258.983 286.28C259.934 285.377 260.491 284.133 260.529 282.821C260.568 281.509 260.086 280.234 259.189 279.276Z" fill="#2A9D8F"/>
<path opacity="0.2" d="M260.523 282.461C260.407 283.644 259.867 284.746 259.004 285.562C258.047 286.46 256.773 286.942 255.462 286.903C254.151 286.864 252.908 286.308 252.006 285.355L246.172 279.161L245.803 279.51L251.985 286.073C252.887 287.026 254.13 287.583 255.441 287.621C256.752 287.66 258.025 287.178 258.983 286.28C259.498 285.792 259.903 285.198 260.169 284.539C260.435 283.88 260.555 283.171 260.523 282.461Z" fill="black"/>
<path d="M263.091 297.294C264.031 296.379 264.572 295.129 264.595 293.816C264.618 292.504 264.121 291.235 263.212 290.288C262.298 289.347 261.049 288.805 259.737 288.782C258.426 288.76 257.158 289.257 256.212 290.167L249.547 296.609L256.426 303.737L263.091 297.294Z" fill="#3F3D56"/>
<path d="M250.308 309.65L256.791 303.384L249.912 296.256L243.43 302.523C242.489 303.438 241.948 304.688 241.925 306.001C241.903 307.313 242.4 308.582 243.308 309.529C244.222 310.47 245.472 311.012 246.783 311.034C248.095 311.057 249.362 310.56 250.308 309.65Z" fill="#2A9D8F"/>
<path opacity="0.2" d="M247.142 311.024C245.959 310.922 244.852 310.395 244.026 309.541C243.118 308.594 242.62 307.326 242.643 306.013C242.666 304.7 243.207 303.45 244.148 302.535L250.265 296.622L249.912 296.256L243.43 302.523C242.489 303.438 241.948 304.688 241.925 306.001C241.903 307.313 242.4 308.582 243.308 309.529C243.802 310.039 244.401 310.437 245.062 310.695C245.724 310.953 246.434 311.065 247.142 311.024Z" fill="black"/>
<path d="M227.564 281.671C228.505 280.756 229.045 279.505 229.068 278.193C229.091 276.88 228.594 275.612 227.685 274.665C226.771 273.723 225.522 273.182 224.21 273.159C222.899 273.136 221.631 273.634 220.685 274.543L214.02 280.986L220.899 288.113L227.564 281.671Z" fill="#3F3D56"/>
<path d="M214.781 294.027L221.264 287.76L214.385 280.633L207.903 286.899C206.962 287.814 206.421 289.064 206.398 290.377C206.375 291.69 206.873 292.958 207.781 293.905C208.695 294.847 209.945 295.388 211.256 295.411C212.568 295.434 213.835 294.936 214.781 294.027Z" fill="#2A9D8F"/>
<path opacity="0.2" d="M211.615 295.4C210.432 295.298 209.325 294.772 208.499 293.918C207.591 292.971 207.093 291.702 207.116 290.39C207.139 289.077 207.68 287.827 208.621 286.912L214.738 280.998L214.385 280.633L207.903 286.899C206.962 287.814 206.421 289.064 206.398 290.377C206.375 291.69 206.873 292.958 207.781 293.905C208.275 294.416 208.874 294.813 209.535 295.071C210.197 295.329 210.906 295.441 211.615 295.4Z" fill="black"/>
<path d="M278.163 262.815C279.103 261.9 279.644 260.649 279.667 259.337C279.69 258.024 279.193 256.756 278.284 255.809C277.37 254.867 276.121 254.326 274.809 254.303C273.498 254.28 272.23 254.778 271.284 255.687L264.619 262.13L271.498 269.257L278.163 262.815Z" fill="#3F3D56"/>
<path d="M265.38 275.171L271.863 268.904L264.984 261.777L258.502 268.043C257.561 268.958 257.02 270.208 256.997 271.521C256.975 272.834 257.472 274.102 258.38 275.049C259.294 275.991 260.544 276.532 261.855 276.555C263.167 276.578 264.434 276.08 265.38 275.171Z" fill="#2A9D8F"/>
<path opacity="0.2" d="M262.214 276.544C261.031 276.442 259.924 275.916 259.098 275.062C258.19 274.115 257.692 272.846 257.715 271.534C257.738 270.221 258.279 268.971 259.22 268.056L265.337 262.142L264.984 261.777L258.502 268.043C257.561 268.958 257.02 270.208 256.997 271.521C256.975 272.834 257.472 274.102 258.38 275.049C258.874 275.559 259.473 275.957 260.134 276.215C260.796 276.473 261.506 276.585 262.214 276.544Z" fill="black"/>
<path d="M266.916 301.891C266.014 300.938 264.771 300.382 263.46 300.343C262.149 300.304 260.876 300.787 259.918 301.684C258.967 302.588 258.411 303.831 258.372 305.144C258.333 306.456 258.815 307.73 259.712 308.688L266.068 315.437L273.272 308.64L266.916 301.891Z" fill="#3F3D56"/>
<path d="M279.106 314.833L272.924 308.27L265.719 315.067L271.901 321.63C272.804 322.583 274.047 323.14 275.358 323.178C276.669 323.217 277.942 322.735 278.899 321.837C279.851 320.934 280.407 319.69 280.446 318.378C280.485 317.066 280.003 315.791 279.106 314.833Z" fill="#2A9D8F"/>
<path opacity="0.2" d="M280.44 318.018C280.324 319.201 279.784 320.303 278.921 321.119C277.963 322.017 276.69 322.499 275.379 322.46C274.068 322.421 272.825 321.865 271.923 320.912L266.089 314.718L265.719 315.067L271.901 321.63C272.804 322.583 274.047 323.14 275.358 323.178C276.669 323.217 277.942 322.735 278.899 321.837C279.415 321.349 279.82 320.755 280.086 320.096C280.351 319.437 280.472 318.728 280.44 318.018Z" fill="black"/>
<path d="M231.928 301.352C231.025 300.4 229.782 299.843 228.471 299.804C227.16 299.766 225.887 300.248 224.93 301.146C223.978 302.049 223.422 303.293 223.383 304.605C223.344 305.917 223.826 307.191 224.723 308.149L231.079 314.898L238.284 308.101L231.928 301.352Z" fill="#3F3D56"/>
<path d="M244.117 314.295L237.935 307.731L230.731 314.528L236.913 321.092C237.815 322.044 239.058 322.601 240.369 322.64C241.68 322.678 242.953 322.196 243.911 321.298C244.862 320.395 245.418 319.152 245.457 317.839C245.496 316.527 245.014 315.253 244.117 314.295Z" fill="#2A9D8F"/>
<path opacity="0.2" d="M245.451 317.479C245.335 318.663 244.795 319.764 243.932 320.58C242.975 321.478 241.701 321.96 240.39 321.921C239.079 321.882 237.836 321.326 236.934 320.373L231.1 314.18L230.731 314.528L236.913 321.092C237.815 322.044 239.058 322.601 240.369 322.64C241.68 322.678 242.953 322.196 243.911 321.298C244.426 320.81 244.831 320.216 245.097 319.557C245.363 318.898 245.483 318.189 245.451 317.479Z" fill="black"/>
<path d="M241.776 283.577C241.777 285.225 241.208 286.821 240.168 288.098C239.127 289.374 237.677 290.251 236.065 290.58C235.122 290.771 234.151 290.771 233.209 290.58C231.597 290.25 230.147 289.373 229.107 288.097C228.066 286.821 227.498 285.225 227.498 283.577C227.498 281.93 228.066 280.334 229.107 279.058C230.147 277.782 231.597 276.905 233.209 276.575C234.151 276.384 235.122 276.384 236.065 276.575C237.677 276.904 239.127 277.781 240.168 279.057C241.208 280.333 241.777 281.93 241.776 283.577Z" fill="#2A9D8F"/>
<path opacity="0.2" d="M236.065 276.575V290.58C235.123 290.771 234.152 290.771 233.209 290.58V276.575C234.152 276.384 235.123 276.384 236.065 276.575Z" fill="black"/>
<path d="M245.006 255.024C245.006 256.671 244.438 258.268 243.397 259.544C242.356 260.82 240.907 261.697 239.295 262.027C238.352 262.217 237.381 262.217 236.439 262.027C234.826 261.697 233.377 260.82 232.336 259.544C231.296 258.268 230.727 256.671 230.727 255.024C230.727 253.377 231.296 251.78 232.336 250.504C233.377 249.228 234.826 248.351 236.439 248.022C237.381 247.831 238.352 247.831 239.295 248.022C240.907 248.351 242.356 249.228 243.397 250.504C244.438 251.78 245.006 253.377 245.006 255.024Z" fill="#2A9D8F"/>
<path opacity="0.2" d="M239.295 248.022V262.027C238.352 262.217 237.381 262.217 236.439 262.027V248.022C237.381 247.831 238.352 247.831 239.295 248.022Z" fill="black"/>
<path d="M245.006 295.969C245.006 297.616 244.438 299.213 243.397 300.489C242.356 301.765 240.907 302.642 239.295 302.971C238.352 303.162 237.381 303.162 236.439 302.971C234.826 302.641 233.377 301.764 232.336 300.488C231.296 299.212 230.727 297.616 230.727 295.969C230.727 294.321 231.296 292.725 232.336 291.449C233.377 290.173 234.826 289.296 236.439 288.966C237.381 288.776 238.352 288.776 239.295 288.966C240.907 289.295 242.356 290.172 243.397 291.449C244.438 292.725 245.006 294.321 245.006 295.969Z" fill="#2A9D8F"/>
<path opacity="0.2" d="M239.295 288.966V302.971C238.352 303.162 237.381 303.162 236.439 302.971V288.966C237.381 288.776 238.352 288.776 239.295 288.966Z" fill="black"/>
<path d="M262.77 315.902C262.77 317.549 262.202 319.146 261.161 320.422C260.12 321.698 258.671 322.575 257.058 322.905C256.116 323.095 255.145 323.095 254.202 322.905C252.59 322.575 251.141 321.698 250.1 320.422C249.059 319.146 248.491 317.549 248.491 315.902C248.491 314.255 249.059 312.658 250.1 311.382C251.141 310.106 252.59 309.229 254.202 308.9C255.145 308.709 256.116 308.709 257.058 308.9C258.671 309.229 260.12 310.106 261.161 311.382C262.202 312.658 262.77 314.255 262.77 315.902Z" fill="#2A9D8F"/>
<path opacity="0.2" d="M257.058 308.9V322.905C256.116 323.095 255.145 323.095 254.202 322.905V308.9C255.145 308.709 256.116 308.709 257.058 308.9Z" fill="black"/>
<path d="M278.462 279.227C279.647 280.37 280.401 281.887 280.597 283.523C280.793 285.158 280.418 286.811 279.536 288.202C279.019 289.013 278.345 289.713 277.554 290.26C276.198 291.193 274.561 291.629 272.921 291.493C271.281 291.358 269.738 290.659 268.553 289.516C267.368 288.373 266.614 286.855 266.418 285.22C266.222 283.584 266.597 281.932 267.479 280.541C267.996 279.729 268.669 279.03 269.461 278.483C270.817 277.549 272.453 277.114 274.094 277.249C275.734 277.385 277.277 278.083 278.462 279.227Z" fill="#2A9D8F"/>
<path opacity="0.2" d="M269.461 278.483L279.536 288.202C279.019 289.013 278.345 289.713 277.554 290.26L267.479 280.541C267.996 279.729 268.67 279.03 269.461 278.483Z" fill="black"/>
<path d="M280.615 294.85C281.8 295.993 282.554 297.511 282.75 299.146C282.946 300.782 282.571 302.435 281.689 303.826C281.172 304.637 280.498 305.337 279.707 305.883C278.351 306.817 276.714 307.252 275.074 307.117C273.434 306.981 271.891 306.283 270.706 305.14C269.521 303.997 268.767 302.479 268.571 300.843C268.375 299.208 268.75 297.555 269.632 296.164C270.149 295.353 270.823 294.653 271.614 294.106C272.97 293.173 274.606 292.737 276.247 292.873C277.887 293.008 279.43 293.707 280.615 294.85Z" fill="#2A9D8F"/>
<path opacity="0.2" d="M271.614 294.106L281.689 303.826C281.172 304.637 280.498 305.337 279.707 305.883L269.632 296.164C270.149 295.353 270.823 294.653 271.614 294.106Z" fill="black"/>
<path d="M216.559 298.621C217.744 299.764 218.498 301.282 218.694 302.918C218.89 304.553 218.515 306.206 217.633 307.597C217.116 308.408 216.442 309.108 215.651 309.655C214.295 310.588 212.658 311.023 211.018 310.888C209.378 310.752 207.834 310.054 206.65 308.911C205.465 307.768 204.71 306.25 204.515 304.615C204.319 302.979 204.694 301.326 205.576 299.935C206.093 299.124 206.766 298.424 207.557 297.878C208.914 296.944 210.55 296.508 212.191 296.644C213.831 296.779 215.374 297.478 216.559 298.621Z" fill="#2A9D8F"/>
<path opacity="0.2" d="M207.557 297.878L217.632 307.597C217.115 308.408 216.442 309.108 215.651 309.655L205.575 299.935C206.092 299.124 206.766 298.424 207.557 297.878Z" fill="black"/>
<path opacity="0.2" d="M193.515 170.3H190.823V190.233H193.515V170.3Z" fill="black"/>
<path opacity="0.2" d="M209.125 170.3H206.434V190.233H209.125V170.3Z" fill="black"/>
<path opacity="0.2" d="M224.735 170.3H222.044V190.233H224.735V170.3Z" fill="black"/>
<path opacity="0.2" d="M240.346 170.3H237.654V190.233H240.346V170.3Z" fill="black"/>
<path opacity="0.2" d="M255.956 170.3H253.265V190.233H255.956V170.3Z" fill="black"/>
<path opacity="0.2" d="M271.566 170.3H268.875V190.233H271.566V170.3Z" fill="black"/>
<path opacity="0.2" d="M287.177 170.3H284.485V190.233H287.177V170.3Z" fill="black"/>
</g>
<defs>
<clipPath id="clip0">
<rect width="478" height="333" fill="white"/>
</clipPath>
</defs>
</svg>
