<svg xmlns="http://www.w3.org/2000/svg" width="131" height="80" viewBox="0 0 131 80">
  <g fill="none" fill-rule="evenodd" stroke="#A0AEC0" stroke-linejoin="round" stroke-width="2" transform="translate(1)">
    <g transform="rotate(-15 64.883 8.01)">
      <rect width="63.36" height="45.36" rx="1.44"/>
      <circle cx="24.48" cy="11.52" r="4.32"/>
      <path d="M0,32.4 L12.8251246,23.3313252 C13.2656662,23.0198173 13.843384,22.9807177 14.3218813,23.2300256 L30.7980844,31.8145019 C31.4405838,32.1492587 32.2317498,31.954554 32.6455111,31.3598531 L44.8887057,13.7626596 C45.3429093,13.1098309 46.2403363,12.9488135 46.8931651,13.4030171 C46.9920131,13.4717904 47.0818443,13.552691 47.1605551,13.6438245 L63.36,32.4 L63.36,32.4"/>
    </g>
    <g transform="rotate(12 -65.944 326.688)">
      <rect width="63.36" height="45.36" fill="#F7FAFC" rx="1.44"/>
      <circle cx="24.48" cy="11.52" r="4.32"/>
      <path d="M0,32.4 L12.8251246,23.3313252 C13.2656662,23.0198173 13.843384,22.9807177 14.3218813,23.2300256 L30.7980844,31.8145019 C31.4405838,32.1492587 32.2317498,31.954554 32.6455111,31.3598531 L44.8887057,13.7626596 C45.3429093,13.1098309 46.2403363,12.9488135 46.8931651,13.4030171 C46.9920131,13.4717904 47.0818443,13.552691 47.1605551,13.6438245 L63.36,32.4 L63.36,32.4"/>
    </g>
  </g>
</svg>
